<svg width="40" height="37" viewBox="0 0 40 37" fill="none" xmlns="http://www.w3.org/2000/svg">
<path d="M15.4399 26.0591C13.5799 29.0491 12.7699 31.5791 9.43994 33.6491H30.2799C25.9699 32.0891 24.8299 29.3991 22.7899 25.9491C22.0799 24.7491 16.2099 24.8191 15.4399 26.0591Z" fill="#90CEF4" stroke="#469CD6" stroke-miterlimit="10"/>
<path d="M33.2099 33.1895H6.49994C6.05259 33.1895 5.68994 33.5521 5.68994 33.9995V35.1495C5.68994 35.5968 6.05259 35.9595 6.49994 35.9595H33.2099C33.6573 35.9595 34.0199 35.5968 34.0199 35.1495V33.9995C34.0199 33.5521 33.6573 33.1895 33.2099 33.1895Z" fill="#90CEF4" stroke="#469CD6" stroke-miterlimit="10"/>
<path d="M37.2 0.5H2.51C1.39991 0.5 0.5 1.39991 0.5 2.51V27.06C0.5 28.1701 1.39991 29.07 2.51 29.07H37.2C38.3101 29.07 39.21 28.1701 39.21 27.06V2.51C39.21 1.39991 38.3101 0.5 37.2 0.5Z" fill="white" stroke="#469CD6" stroke-miterlimit="10"/>
<path d="M0.5 20.6396H39.21V26.9296C39.21 28.0396 38.31 28.9396 37.2 28.9396H2.51C1.4 28.9396 0.5 28.0396 0.5 26.9296V20.6396Z" fill="#90CEF4" stroke="#469CD6" stroke-miterlimit="10"/>
<path d="M13.4397 8.63965H15.5997V13.6696H13.4397C12.7397 13.6696 12.1797 13.0996 12.1797 12.4096V9.90965C12.1797 9.20965 12.7497 8.64965 13.4397 8.64965V8.63965Z" fill="#A6D0E5" stroke="#469CD6" stroke-miterlimit="10"/>
<path d="M21.1696 12.709C20.7996 12.709 20.4996 12.409 20.4996 12.039V10.269C20.4996 9.89898 20.7996 9.59899 21.1696 9.59899C21.9696 9.59899 22.6196 10.249 22.6196 11.049V11.259C22.6196 12.059 21.9696 12.709 21.1696 12.709Z" fill="#A6D0E5" stroke="#469CD6" stroke-miterlimit="10"/>
<path d="M18.6499 16.7993L15.3599 13.6693V8.63932L18.7399 4.88932C19.4199 4.36932 20.3899 4.85932 20.3899 5.70932V16.0493C20.3899 16.9493 19.3099 17.4193 18.6499 16.7893V16.7993Z" fill="white" stroke="#469CD6" stroke-miterlimit="10"/>
<path d="M22.1099 7.62891C24.0599 7.62891 25.6299 9.20891 25.6299 11.1489C25.6299 13.0889 24.0499 14.6689 22.1099 14.6689" stroke="#469CD6" stroke-miterlimit="10"/>
<path d="M22.1499 5.76953C25.1299 5.76953 27.5399 8.17953 27.5399 11.1595C27.5399 14.1395 25.1299 16.5495 22.1499 16.5495" stroke="#469CD6" stroke-miterlimit="10"/>
</svg>
