<svg width="986" height="401" viewBox="0 0 986 401" fill="none" xmlns="http://www.w3.org/2000/svg">
<path opacity="0.4" d="M460.687 659C348.626 659 266.685 634.727 226.944 591.914C200.06 562.952 191.462 521.325 172.723 486.534L101.553 354.397C88.6291 330.403 62.1667 317.408 39.0499 302.973C23.197 293.075 11.0308 277.969 4.76343 260.427C-1.47327 242.884 -1.59617 223.545 4.45618 205.972C10.5085 188.368 22.4904 173.141 38.2511 163.06C51.7383 154.441 67.3454 149.872 83.4134 149.872C86.1477 149.872 88.882 149.994 91.6163 150.268C110.265 152.096 127.93 160.227 141.418 173.141C154.874 186.054 163.692 203.322 166.18 221.748C169.23 244.345 175.931 268.807 195.233 280.946L310.361 353.347C314.908 356.24 320.1 358.067 325.385 358.707C326.829 358.89 328.273 358.981 329.717 358.981C333.618 358.981 337.489 358.342 341.207 357.093C346.245 355.387 350.946 352.525 354.756 348.839C358.565 345.124 361.576 340.525 363.419 335.53L419.276 185C427.11 163.89 418.318 140.706 407.875 120.757C399.58 104.889 396.692 86.4332 399.703 68.8298C402.714 51.196 411.592 34.7499 424.68 22.5068C437.799 10.2331 454.881 2.43645 472.761 0.48729C475.741 0.182734 478.752 0 481.732 0C496.786 0 511.564 4.05061 524.498 11.7254C539.952 20.8926 552.179 35.0849 558.938 51.6528C565.697 68.2207 566.865 86.8596 562.195 104.098C556.362 125.819 552.722 150.308 564.908 169.212L651.383 303.369C654.27 307.907 658.203 311.744 662.719 314.546C667.266 317.348 672.458 319.145 677.773 319.724C679.064 319.876 680.415 319.937 681.706 319.937C685.761 319.937 689.755 319.267 693.565 317.927C698.603 316.16 703.273 313.267 707.052 309.521L805.267 212.881C820.617 197.776 821.846 173.909 819.589 152.492C817.746 136.259 820.787 119.904 828.406 105.285C836.026 90.6666 847.731 78.7279 862.232 70.779C874.521 64.0483 888.438 60.485 902.479 60.485C904.875 60.485 907.302 60.5763 909.698 60.7895C926.227 62.221 941.773 68.4035 954.707 78.7279C967.641 89.022 977.104 102.788 982.112 118.473C987.089 134.157 987.304 150.817 982.665 166.623C978.026 182.43 968.87 196.378 956.182 206.946C937.898 222.171 918.069 238.321 911.764 261.263L870.03 413.131C859.95 449.81 860.773 490.607 842.121 523.759C837.558 531.868 831.796 539.779 824.843 547.471C755.563 624.037 587.51 658.909 460.718 658.909" fill="#3082CF"/>
</svg>
