<svg width="147" height="106" viewBox="0 0 147 106" fill="none" xmlns="http://www.w3.org/2000/svg">
<path d="M68.4326 102.861C52.3757 102.861 40.6354 99.3804 34.9434 93.2409C31.095 89.0899 29.8647 83.1275 27.1817 78.1432L16.9823 59.195C15.1318 55.757 11.3407 53.8947 8.02952 51.8258C5.75846 50.4069 4.01556 48.2415 3.1177 45.7269C2.22425 43.2122 2.20664 40.44 3.07369 37.921C3.94074 35.3976 5.65723 33.2147 7.91509 31.7696C9.84724 30.5341 12.0831 29.8793 14.385 29.8793C14.7767 29.8793 15.1684 29.8967 15.5601 29.936C18.2317 30.198 20.7624 31.3636 22.6946 33.2147C24.6223 35.0658 25.8855 37.5411 26.242 40.1824C26.679 43.4219 27.6394 46.9286 30.4061 48.6695L46.8971 59.0467C47.5485 59.4615 48.2923 59.7234 49.0494 59.8151C49.2562 59.8413 49.4631 59.8544 49.6699 59.8544C50.2289 59.8544 50.7835 59.7627 51.316 59.5837C52.0378 59.3392 52.7112 58.9289 53.257 58.4006C53.8027 57.868 54.2341 57.2088 54.4981 56.4928L62.5005 34.9138C63.6226 31.8879 62.3627 28.5652 60.8668 25.7056C59.6784 23.4311 59.2647 20.7855 59.696 18.2621C60.1274 15.7343 61.3993 13.3768 63.2743 11.6218C65.1536 9.86239 67.6007 8.74477 70.1623 8.46536C70.5892 8.4217 71.0205 8.39551 71.4474 8.39551C73.6041 8.39551 75.7211 8.97615 77.574 10.0763C79.7878 11.3904 81.5395 13.4248 82.5078 15.7998C83.4761 18.1747 83.6434 20.8466 82.9744 23.3176C82.1388 26.4314 81.6172 29.9414 83.3631 32.6517L95.7512 51.8826C96.165 52.5331 96.7283 53.0831 97.3753 53.4848C98.0267 53.8864 98.7705 54.144 99.5319 54.227C99.7168 54.2488 99.9105 54.2575 100.095 54.2575C100.676 54.2575 101.248 54.1615 101.794 53.9694C102.516 53.7162 103.185 53.3014 103.726 52.7644L117.796 38.9122C119.995 36.7462 120.172 33.325 119.848 30.2547C119.584 27.9278 120.02 25.5834 121.111 23.4878C122.203 21.3923 123.88 19.6809 125.957 18.5415C127.718 17.5766 129.711 17.0659 131.723 17.0659C132.066 17.0659 132.414 17.0789 132.757 17.1095C135.125 17.3147 137.352 18.2009 139.205 19.6809C141.058 21.1565 142.414 23.1299 143.131 25.3782C143.844 27.6266 143.875 30.0146 143.21 32.2804C142.546 34.5462 141.234 36.5457 139.416 38.0607C136.797 40.2428 133.957 42.5573 133.054 45.8444L127.073 67.6205C125.63 72.8758 125.748 78.7202 123.078 83.4713C122.424 84.6349 121.598 85.7702 120.601 86.8739C110.676 97.8494 86.601 102.848 68.437 102.848" fill="#F4CA66"/>
<path d="M132.515 19.5271C131.653 19.562 129.447 18.3722 128.616 18.6385C127.326 19.0532 126.155 19.7343 125.165 20.6293C126.556 21.4238 129.078 23.8971 129.919 25.2767C131.032 27.1016 131.494 29.2495 131.23 31.3669C130.966 33.4843 129.989 35.4532 128.457 36.9507C126.926 38.4481 113.414 73.7189 113.414 73.7189C113.845 73.6447 114.254 73.6097 114.655 73.6097C117.498 73.6097 120.975 76.7335 123.81 78.0869L123.845 76.6352C123.845 76.2161 123.823 75.7926 123.779 75.3648L132.586 38.4132L132.766 38.3914C134.641 38.1906 136.41 37.4396 137.854 36.2347C139.298 35.0298 140.35 33.4275 140.878 31.6289C141.406 29.8302 141.384 27.9136 140.816 26.1237C140.248 24.3337 139.161 22.7533 137.687 21.5833C136.217 20.4089 134.425 19.6973 132.551 19.5358C132.542 19.5358 132.533 19.5358 132.524 19.5358" fill="white" fill-opacity="0.5"/>
<path d="M14.3813 32.2949C13.0213 32.2949 11.6789 32.5831 10.4465 33.1419C10.0284 33.3296 9.6235 33.5523 9.23179 33.8011C7.42726 34.958 6.06727 36.6825 5.37627 38.7038C5.03297 39.6992 4.86572 40.7339 4.86572 41.7686C4.86572 42.8382 5.05058 43.9078 5.41148 44.9293C6.12889 46.942 7.50649 48.6533 9.32421 49.7928C10.8471 50.7445 12.6076 51.2466 14.3945 51.2466C14.5837 51.2466 14.809 51.703 14.9982 51.6899C14.8442 51.7074 15.1523 51.6812 14.9982 51.6899L31.1093 84.5833C31.3821 87.0674 34.9132 89.5908 36.5813 91.4506C39.9439 89.1717 42.2589 82.9156 45.7227 82.4877C45.7227 82.4877 22.2772 49.7317 20.4594 48.5966C18.6417 47.4615 17.2597 45.7457 16.5467 43.7331C15.8293 41.7205 15.8161 39.5246 16.5115 37.5076C17.0352 35.984 17.9375 34.6219 19.1258 33.5523C18.0563 32.941 16.8724 32.5438 15.64 32.3779C15.64 32.3779 15.6224 32.3779 15.6136 32.3779C15.5916 32.3779 15.574 32.3735 15.552 32.3691C15.5432 32.3691 15.5344 32.3691 15.5256 32.3691C15.5256 32.3691 15.5212 32.3691 15.5168 32.3691C15.508 32.3691 15.5036 32.3691 15.4948 32.3691C15.4948 32.3691 15.4904 32.3691 15.486 32.3691C15.4684 32.3691 15.4464 32.3691 15.4288 32.3648C15.4288 32.3648 15.4244 32.3648 15.42 32.3648C15.4112 32.3648 15.4068 32.3648 15.398 32.3648C15.398 32.3648 15.3936 32.3648 15.3892 32.3648H15.3672C15.3672 32.3648 15.3628 32.3648 15.3584 32.3648C15.3496 32.3648 15.3407 32.3648 15.3275 32.3648C15.2615 32.3604 15.1999 32.3517 15.1339 32.3473C14.8874 32.3298 14.6409 32.3167 14.3945 32.3167" fill="white" fill-opacity="0.5"/>
<path d="M71.4428 10.8128C73.1549 10.8128 74.8406 11.2712 76.3194 12.153C78.0931 13.2095 79.4707 14.8074 80.2497 16.7152C81.0244 18.6187 81.1564 20.723 80.6238 22.7094C79.7271 26.0542 78.7266 29.9467 80.6017 32.858L93.7 53.1953C94.3074 54.147 95.126 54.9503 96.0899 55.5484C97.0538 56.1465 98.1365 56.5176 99.2632 56.6442C99.5405 56.6748 99.8178 56.6879 100.095 56.6879C100.945 56.6879 101.794 56.5438 102.599 56.2644C103.669 55.8933 104.642 55.2865 105.443 54.4875L120.442 39.7175C122.848 37.3489 122.609 33.3797 122.26 30.022C122.049 28.1578 122.401 26.2762 123.268 24.6085C124.135 22.9451 125.477 21.5743 127.128 20.6706C128.536 19.8978 130.116 19.4962 131.718 19.4962C131.991 19.4962 132.268 19.5093 132.541 19.5311C134.421 19.6927 136.207 20.4043 137.678 21.5787C139.148 22.753 140.239 24.3334 140.807 26.119C141.375 27.909 141.397 29.8212 140.868 31.6242C140.34 33.4229 139.288 35.0295 137.845 36.23C136.401 37.435 134.627 38.1859 132.757 38.3867C132.648 38.3999 132.557 38.4778 132.528 38.5838L124.674 67.1794C123.189 72.5844 123.43 78.7469 120.28 83.3834C113.028 94.0599 89.2609 100.446 68.4323 100.446C55.3431 100.446 43.4101 97.9211 37.4721 92.3527C33.3471 88.4845 32.2139 82.3699 29.5335 77.3905L15.9147 52.0909C15.618 51.5398 15.015 51.2351 14.3891 51.2351C12.6022 51.2351 10.8461 50.7374 9.31887 49.7813C7.50114 48.6462 6.11914 46.9305 5.40614 44.9179C4.69313 42.9053 4.67553 40.7093 5.37093 38.6923C6.06633 36.671 7.42192 34.9465 9.22644 33.7896C10.7669 32.803 12.5582 32.2834 14.3759 32.2834C14.6884 32.2834 14.9965 32.2965 15.309 32.3271C17.4436 32.5366 19.4462 33.4578 20.991 34.9378C22.5359 36.4221 23.5306 38.378 23.821 40.4954C24.2933 43.991 24.9557 48.0947 27.9412 49.9733L45.5853 61.0754C46.5404 61.6823 47.6231 62.0664 48.7454 62.2018C49.0491 62.2367 49.3528 62.2585 49.6609 62.2585C50.4839 62.2585 51.3026 62.1232 52.086 61.8613C53.1599 61.4989 54.137 60.9052 54.9468 60.115C55.7567 59.3291 56.3816 58.3687 56.769 57.3122L65.2225 34.5168C66.4289 31.2636 64.6174 27.6682 63.0144 24.591C62.0637 22.7661 61.7336 20.6837 62.0813 18.658C62.429 16.6323 63.4281 14.7725 64.9333 13.3667C66.4385 11.9566 68.3619 11.0791 70.4173 10.8564C70.7562 10.8215 71.0995 10.7997 71.4384 10.7997M71.4384 5.97553C70.9234 5.97553 70.4041 6.00172 69.8891 6.05848C66.7994 6.39027 63.855 7.73928 61.5971 9.85666C59.3393 11.9697 57.8077 14.8074 57.2927 17.8503C56.7734 20.8889 57.2751 24.0671 58.7011 26.8044C60.0208 29.3352 60.8794 32.2754 59.887 34.9515L52.2136 55.6445C52.0684 56.0374 51.8439 56.3866 51.5535 56.666C51.263 56.9454 50.9109 57.1637 50.528 57.2903C50.2463 57.3864 49.9558 57.43 49.6609 57.43C49.5509 57.43 49.4408 57.4213 49.3352 57.4082C48.9347 57.3602 48.543 57.2205 48.2041 57.0066L32.5192 47.1378C30.0874 45.6077 29.0279 42.6918 28.6404 39.8449C28.2091 36.6666 26.6951 33.6936 24.3756 31.4627C22.0517 29.2318 19.0017 27.8304 15.7887 27.516C15.3222 27.4724 14.8469 27.4462 14.3759 27.4462C11.6075 27.4462 8.91395 28.232 6.59008 29.7207C3.8745 31.4583 1.8103 34.0865 0.767198 37.1207C-0.275903 40.1548 -0.253896 43.4859 0.824415 46.5113C1.90273 49.5324 4.00213 52.1388 6.73092 53.8458C10.0034 55.8929 13.5537 57.9236 15.3834 61.3225L24.9336 79.0632C27.5607 83.9434 28.8627 89.6483 32.3588 93.9489C34.5061 96.5903 37.8309 99.149 42.9182 101.183C49.5597 103.842 58.3842 105.248 68.4323 105.248C78.4804 105.248 89.6244 103.755 99.0652 101.048C106.437 98.9307 116.472 95.0321 122.405 88.4748C123.799 86.9338 124.906 85.3047 125.717 83.6147C128.027 78.8011 128.059 73.1824 129.473 68.0339L135.134 47.4225C135.991 44.3014 138.49 41.9765 140.974 39.9016C143.161 38.0768 144.742 35.6712 145.538 32.947C146.335 30.2228 146.304 27.3545 145.446 24.6478C144.587 21.941 142.955 19.5704 140.728 17.7936C138.496 16.0167 135.811 14.9471 132.964 14.7026C132.55 14.6677 132.132 14.6502 131.723 14.6502C129.302 14.6502 126.903 15.2658 124.782 16.4227C122.277 17.7936 120.262 19.8498 118.95 22.3732C117.643 24.8879 117.115 27.6994 117.427 30.5153C117.704 33.1441 117.322 35.9713 115.439 37.8258L102.018 51.0386C101.719 51.3355 101.367 51.5538 100.989 51.6847C100.702 51.7852 100.399 51.8375 100.095 51.8375C99.9982 51.8375 99.897 51.8332 99.8002 51.8201C99.3997 51.7764 99.0079 51.6411 98.6646 51.4272C98.3213 51.2132 98.0221 50.9207 97.8064 50.5802L85.9161 32.1208C84.3744 29.7274 84.5754 26.6753 85.32 23.9274C86.121 20.95 85.923 17.7368 84.7566 14.8816C83.5903 12.0221 81.4821 9.57726 78.8193 7.9925C76.5923 6.66531 74.0395 5.9668 71.4428 5.9668" fill="#3074B7"/>
<path d="M81.8664 95.7555C100.08 93.107 114.372 87.7632 113.79 83.8198C113.207 79.8763 97.9694 78.8265 79.7559 81.475C61.5425 84.1235 47.25 89.4673 47.8328 93.4107C48.4157 97.3542 63.653 98.404 81.8664 95.7555Z" fill="#3074B7"/>
<path d="M34.2556 0.750716L34.3348 5.59231C34.3568 6.91076 35.0126 8.13753 36.1041 8.8928L40.1048 11.665C40.7166 12.0885 40.4217 13.0446 39.6779 13.0577L34.7969 13.1363C33.4677 13.1581 32.231 13.8086 31.4696 14.8913L28.6748 18.8598C28.2478 19.4666 27.2839 19.1741 27.2707 18.4363L27.1915 13.5947C27.1695 12.2762 26.5137 11.0495 25.4222 10.2942L21.4215 7.52196C20.8097 7.09849 21.1046 6.14239 21.8484 6.1293L26.7294 6.05071C28.0586 6.02888 29.2953 5.37839 30.0568 4.29569L32.8516 0.32724C33.2785 -0.279596 34.2424 0.0129075 34.2556 0.750716Z" fill="#917127"/>
<path d="M34.2556 0.750716L34.3348 5.59231C34.3568 6.91076 35.0126 8.13753 36.1041 8.8928L40.1048 11.665C40.7166 12.0885 40.4217 13.0446 39.6779 13.0577L34.7969 13.1363C33.4677 13.1581 32.231 13.8086 31.4696 14.8913L28.6748 18.8598C28.2478 19.4666 27.2839 19.1741 27.2707 18.4363L27.1915 13.5947C27.1695 12.2762 26.5137 11.0495 25.4222 10.2942L21.4215 7.52196C20.8097 7.09849 21.1046 6.14239 21.8484 6.1293L26.7294 6.05071C28.0586 6.02888 29.2953 5.37839 30.0568 4.29569L32.8516 0.32724C33.2785 -0.279596 34.2424 0.0129075 34.2556 0.750716Z" fill="#F4CA66"/>
<path d="M102.678 3.6971L103.801 5.94982C104.104 6.56539 104.69 6.99323 105.368 7.10674L107.867 7.52585C108.25 7.59133 108.325 8.10213 107.978 8.27239L105.706 9.38565C105.09 9.68689 104.655 10.2675 104.54 10.9399L104.118 13.4196C104.052 13.7994 103.537 13.8736 103.365 13.5287L102.243 11.276C101.939 10.6648 101.354 10.2326 100.676 10.1191L98.1759 9.69998C97.793 9.6345 97.7181 9.12371 98.0658 8.95344L100.337 7.84018C100.953 7.53895 101.389 6.9583 101.503 6.28598L101.926 3.80625C101.992 3.42643 102.507 3.35221 102.678 3.6971Z" fill="#F4CA66"/>
<path d="M124.765 78.7915C124.765 78.7915 124.764 78.7913 124.764 78.791C123.655 77.3549 122.049 76.1851 120.081 75.2029C117.128 73.7316 113.334 72.6839 108.968 71.9853C104.607 71.2868 99.6772 70.9507 94.4837 70.9463C82.2437 70.9463 68.5382 72.8279 57.4294 76.4602C51.875 78.2807 46.9676 80.5334 43.2001 83.262C41.3163 84.6285 39.7187 86.1128 38.4775 87.7325C37.4764 89.0437 36.7088 90.452 36.2356 91.9438C36.0513 92.5247 36.4354 93.1138 37.0315 93.2408C37.6243 93.3671 38.2021 92.9877 38.3965 92.4137C38.7889 91.2554 39.4046 90.1351 40.2336 89.051C42.1174 86.58 45.1234 84.3011 48.9217 82.3234C54.617 79.346 62.0727 77.0365 70.0698 75.4867C78.0669 73.9325 86.6054 73.1335 94.4881 73.1335C101.284 73.1335 107.595 73.7316 112.626 74.9278C115.139 75.5259 117.335 76.2768 119.1 77.1544C120.636 77.9162 121.837 78.7801 122.669 79.6974C122.873 79.9229 123.217 79.9702 123.459 79.7861L124.766 78.7938C124.767 78.7931 124.766 78.7915 124.765 78.7915Z" fill="#2F73B7"/>
<path d="M46.4104 73.0027C46.4117 73.0027 46.4127 73.0037 46.4129 73.0049C46.6756 75.3965 44.9331 77.5432 42.5219 77.8007C40.11 78.0626 37.9446 76.3338 37.6805 73.9414C37.4164 71.5489 39.1593 69.401 41.5712 69.1434C43.9824 68.8816 46.1472 70.6093 46.408 73.0005C46.4081 73.0018 46.4092 73.0027 46.4104 73.0027Z" fill="#3074B7"/>
<path d="M78.775 63.8481C78.8148 61.4421 76.8808 59.4596 74.4552 59.4202C72.0296 59.3807 70.031 61.2991 69.9912 63.7051C69.9515 66.1111 71.8855 68.0935 74.3111 68.133C76.7366 68.1725 78.7352 66.254 78.775 63.8481Z" fill="#3074B7"/>
<path d="M119.448 63.8538C119.712 66.2463 117.969 68.3942 115.558 68.6561C113.146 68.9181 110.98 67.1893 110.716 64.7968C110.452 62.4044 112.195 60.2565 114.607 59.9989C117.019 59.737 119.184 61.4658 119.448 63.8582V63.8538Z" fill="#3074B7"/>
</svg>
