<svg width="114" height="96" viewBox="0 0 114 96" fill="none" xmlns="http://www.w3.org/2000/svg">
<path d="M32.4503 64.8662H40.5261C41.6002 64.8662 42.4697 65.7287 42.4697 66.794V83.0917C42.4697 84.1571 43.3391 85.0195 44.4132 85.0195H52.8112C53.8852 85.0195 54.7547 85.8819 54.7547 86.9473V92.9033C54.7547 93.9686 53.8852 94.8311 52.8112 94.8311H32.4503C31.3763 94.8311 30.5068 93.9686 30.5068 92.9033V66.794C30.5068 65.7287 31.3763 64.8662 32.4503 64.8662Z" fill="#917127"/>
<path d="M58.6542 64.8662H66.73C67.804 64.8662 68.6735 65.7287 68.6735 66.794V81.141C68.6735 83.8806 69.8703 85.1108 72.0798 85.1108C74.2892 85.1108 75.486 83.878 75.486 81.141V66.794C75.486 65.7287 76.3555 64.8662 77.4295 64.8662H85.5053C86.5794 64.8662 87.4488 65.7287 87.4488 66.794V82.3738C87.4488 89.9963 81.1912 95.3815 71.8956 95.3815C62.6 95.3815 56.7107 89.9963 56.7107 82.3738V66.794C56.7107 65.7287 57.5802 64.8662 58.6542 64.8662Z" fill="#917127"/>
<path d="M91.3696 84.662C91.9501 83.6601 93.2799 83.3937 94.2184 84.0786C95.5967 85.0882 97.7014 86.3057 100.069 86.5442C101.379 86.6761 102.008 86.359 102.084 85.6056C102.217 84.3069 100.407 84.0837 97.6118 82.6175C93.9652 80.7277 90.2061 77.8538 90.761 72.4508C91.3824 66.3782 96.8012 63.4535 104.02 64.179C108.34 64.6127 111.398 66.1803 113.017 67.2305C113.815 67.748 114.111 68.7651 113.72 69.6301L111.82 73.8358C111.331 74.9189 109.986 75.3045 108.984 74.6627C107.667 73.818 105.769 72.8617 103.708 72.6537C102.527 72.5345 101.829 72.6766 101.747 73.4731C101.609 74.8124 103.632 75.0584 106.552 76.5373C109.876 78.2267 113.63 81.1437 113.076 86.5873C112.505 92.1577 107.864 95.8383 100.051 95.0519C94.937 94.537 91.3773 92.4164 89.5974 91.0847C88.8175 90.5013 88.6027 89.4283 89.0911 88.5887L91.367 84.6671L91.3696 84.662Z" fill="#917127"/>
<path d="M0.0931653 69.6983C-0.234163 68.6837 0.328432 67.598 1.35133 67.2734L13.0635 63.5471C19.986 61.3453 26.0748 64.2523 28.0899 70.4796C30.2201 77.0672 26.8292 82.5056 19.9067 84.7074L18.6588 85.1031C17.6359 85.4278 17.0733 86.5135 17.4006 87.5281L18.6 91.2417C18.9273 92.2563 18.3647 93.342 17.3418 93.6667L10.5804 95.8177C9.55755 96.1424 8.46304 95.5844 8.13572 94.5697L0.0931653 69.6983ZM16.1527 77.3589C17.8021 76.8338 18.2215 75.3803 17.6794 73.7036C17.1372 72.0269 15.9865 71.0732 14.4163 71.5729L14.2961 71.6109C13.2732 71.9356 12.7106 73.0213 13.038 74.0359L13.708 76.1109C14.0353 77.1255 15.1298 77.6836 16.1527 77.3589Z" fill="#917127"/>
<path d="M54.8392 59.7649C45.5098 59.7649 38.6884 57.7424 35.3812 54.1753C33.1452 51.7634 32.4303 48.2991 30.8715 45.4031L24.9454 34.3937C23.8701 32.3962 21.6674 31.3141 19.7435 30.112C18.424 29.2876 17.4113 28.0295 16.8897 26.5684C16.3705 25.1073 16.3603 23.4966 16.8641 22.033C17.3679 20.5668 18.3652 19.2985 19.6771 18.4589C20.7997 17.741 22.0988 17.3605 23.4362 17.3605C23.6638 17.3605 23.8914 17.3707 24.119 17.3935C25.6713 17.5457 27.1417 18.223 28.2643 19.2985C29.3844 20.374 30.1183 21.8123 30.3254 23.3469C30.5793 25.2292 31.1374 27.2666 32.7449 28.2782L42.3266 34.3076C42.7051 34.5486 43.1373 34.7007 43.5771 34.754C43.6973 34.7692 43.8175 34.7768 43.9377 34.7768C44.2625 34.7768 44.5847 34.7236 44.8941 34.6196C45.3135 34.4775 45.7048 34.2391 46.0219 33.9322C46.3389 33.6227 46.5896 33.2397 46.743 32.8237L51.3926 20.2857C52.0445 18.5276 51.3125 16.597 50.4433 14.9356C49.7529 13.614 49.5125 12.0768 49.7631 10.6106C50.0137 9.14196 50.7528 7.77219 51.8422 6.75248C52.9341 5.73023 54.3559 5.08086 55.8442 4.91852C56.0923 4.89315 56.3429 4.87793 56.591 4.87793C57.844 4.87793 59.0741 5.2153 60.1507 5.85452C61.437 6.61804 62.4547 7.80009 63.0173 9.18C63.5799 10.5599 63.6771 12.1123 63.2884 13.548C62.8029 15.3572 62.4998 17.3967 63.5143 18.9714L70.7121 30.145C70.9525 30.523 71.2798 30.8426 71.6557 31.0759C72.0342 31.3093 72.4664 31.459 72.9088 31.5072C73.0162 31.5199 73.1287 31.5249 73.2361 31.5249C73.5737 31.5249 73.9061 31.4691 74.2232 31.3575C74.6426 31.2104 75.0313 30.9694 75.3458 30.6574L83.5204 22.6089C84.7986 21.3504 84.9009 19.3626 84.713 17.5787C84.5596 16.2267 84.8128 14.8645 85.447 13.647C86.0812 12.4294 87.0555 11.435 88.2625 10.773C89.2854 10.2124 90.4438 9.91562 91.6125 9.91562C91.812 9.91562 92.014 9.92323 92.2135 9.94099C93.5893 10.0602 94.8832 10.5751 95.9598 11.435C97.0364 12.2924 97.8241 13.439 98.2409 14.7453C98.6552 16.0517 98.6731 17.4392 98.2869 18.7557C97.9008 20.0722 97.1387 21.2339 96.0826 22.1141C94.5609 23.382 92.9103 24.7268 92.3858 26.6367L88.9109 39.2892C88.0723 42.3426 88.141 45.7384 86.5897 48.4989C86.2097 49.175 85.7297 49.8346 85.1503 50.4759C79.3837 56.8529 65.3956 59.7573 54.8418 59.7573" fill="#F4CA66"/>
<path d="M92.0731 11.3455C91.5719 11.3658 90.2906 10.6745 89.8072 10.8292C89.058 11.0702 88.3777 11.4659 87.8024 11.9859C88.6104 12.4476 90.0759 13.8846 90.5643 14.6862C91.2113 15.7465 91.4798 16.9945 91.3264 18.2248C91.1729 19.455 90.6052 20.599 89.7153 21.4691C88.8254 22.3391 80.9746 42.8323 80.9746 42.8323C81.2252 42.7892 81.463 42.7689 81.6958 42.7689C83.3477 42.7689 85.3681 44.5839 87.015 45.3703L87.0354 44.5268C87.0354 44.2833 87.0226 44.0372 86.997 43.7886L92.114 22.3188L92.2188 22.3062C93.3082 22.1895 94.3362 21.7532 95.175 21.0531C96.0138 20.353 96.625 19.422 96.9318 18.377C97.2387 17.3319 97.2259 16.2183 96.896 15.1783C96.5662 14.1383 95.9345 13.2201 95.0778 12.5402C94.2237 11.8579 93.1829 11.4444 92.0935 11.3506C92.0884 11.3506 92.0833 11.3506 92.0782 11.3506" fill="white" fill-opacity="0.5"/>
<path d="M23.434 18.7637C22.6439 18.7637 21.8639 18.9311 21.1479 19.2558C20.9049 19.3648 20.6697 19.4942 20.4421 19.6388C19.3936 20.311 18.6034 21.313 18.2019 22.4874C18.0024 23.0657 17.9053 23.6669 17.9053 24.2681C17.9053 24.8896 18.0127 25.511 18.2224 26.1046C18.6392 27.274 19.4396 28.2683 20.4958 28.9304C21.3806 29.4833 22.4035 29.7751 23.4417 29.7751C23.5517 29.7751 23.6826 30.0403 23.7925 30.0326C23.703 30.0428 23.882 30.0276 23.7925 30.0326L33.1534 49.1445C33.312 50.5878 35.3636 52.054 36.3328 53.1346C38.2866 51.8105 39.6317 48.1756 41.6442 47.927C41.6442 47.927 28.0218 28.8949 26.9656 28.2353C25.9095 27.5758 25.1065 26.5789 24.6922 25.4096C24.2754 24.2402 24.2677 22.9643 24.6718 21.7924C24.9761 20.9071 25.5003 20.1157 26.1908 19.4942C25.5694 19.1391 24.8815 18.9083 24.1654 18.8119C24.1654 18.8119 24.1552 18.8119 24.1501 18.8119C24.1373 18.8119 24.1271 18.8093 24.1143 18.8068C24.1092 18.8068 24.104 18.8068 24.0989 18.8068C24.0989 18.8068 24.0964 18.8068 24.0938 18.8068C24.0887 18.8068 24.0861 18.8068 24.081 18.8068C24.081 18.8068 24.0785 18.8068 24.0759 18.8068C24.0657 18.8068 24.0529 18.8068 24.0427 18.8043C24.0427 18.8043 24.0401 18.8043 24.0376 18.8043C24.0324 18.8043 24.0299 18.8043 24.0248 18.8043C24.0248 18.8043 24.0222 18.8043 24.0197 18.8043H24.0069C24.0069 18.8043 24.0043 18.8043 24.0018 18.8043C23.9966 18.8043 23.9915 18.8043 23.9839 18.8043C23.9455 18.8017 23.9097 18.7966 23.8713 18.7941C23.7281 18.784 23.5849 18.7764 23.4417 18.7764" fill="white" fill-opacity="0.5"/>
<path d="M56.5882 6.28242C57.583 6.28242 58.5624 6.54877 59.4216 7.06116C60.4522 7.67502 61.2526 8.60341 61.7053 9.71191C62.1553 10.8179 62.232 12.0405 61.9226 13.1947C61.4016 15.1381 60.8203 17.3997 61.9098 19.0913L69.5202 30.9077C69.8731 31.4607 70.3488 31.9275 70.9088 32.275C71.4688 32.6225 72.0979 32.8381 72.7526 32.9117C72.9137 32.9294 73.0748 32.937 73.2359 32.937C73.7294 32.937 74.223 32.8533 74.691 32.691C75.3124 32.4754 75.8775 32.1228 76.343 31.6586L85.0581 23.0768C86.4557 21.7006 86.3168 19.3944 86.1142 17.4435C85.9915 16.3603 86.196 15.2671 86.6998 14.2981C87.2036 13.3316 87.9836 12.5351 88.9425 12.0101C89.7608 11.5611 90.6789 11.3277 91.6097 11.3277C91.7683 11.3277 91.9294 11.3353 92.0879 11.348C93.1799 11.4419 94.2181 11.8553 95.0723 12.5377C95.9264 13.22 96.5606 14.1383 96.8905 15.1757C97.2203 16.2158 97.2331 17.3268 96.9263 18.3744C96.6194 19.4195 96.0082 20.353 95.1694 21.0505C94.3307 21.7506 93.3001 22.1869 92.2133 22.3036C92.1498 22.3113 92.0974 22.3565 92.0804 22.4181L87.5169 39.0329C86.6544 42.1733 86.7941 45.7539 84.9641 48.4478C80.7501 54.6511 66.941 58.3614 54.839 58.3614C47.2339 58.3614 40.3005 56.8946 36.8504 53.6592C34.4537 51.4117 33.7952 47.8589 32.2378 44.9658L24.325 30.2661C24.1526 29.9459 23.8022 29.7688 23.4386 29.7688C22.4003 29.7688 21.38 29.4796 20.4926 28.9241C19.4365 28.2646 18.6335 27.2677 18.2192 26.0984C17.805 24.929 17.7947 23.6531 18.1988 22.4812C18.6028 21.3067 19.3904 20.3048 20.4389 19.6326C21.334 19.0593 22.3748 18.7574 23.4309 18.7574C23.6125 18.7574 23.7915 18.765 23.973 18.7828C25.2133 18.9046 26.3769 19.4398 27.2745 20.2997C28.172 21.1621 28.75 22.2985 28.9188 23.5288C29.1932 25.5598 29.578 27.9442 31.3127 29.0357L41.5644 35.4863C42.1193 35.8389 42.7484 36.0621 43.4005 36.1408C43.5769 36.161 43.7534 36.1737 43.9324 36.1737C44.4106 36.1737 44.8862 36.0951 45.3414 35.9429C45.9654 35.7324 46.5331 35.3874 47.0036 34.9283C47.4742 34.4717 47.8373 33.9136 48.0623 33.2998L52.974 20.0551C53.675 18.1649 52.6225 16.0759 51.6911 14.2879C51.1387 13.2276 50.9469 12.0177 51.1489 10.8407C51.351 9.66371 51.9314 8.58312 52.806 7.76634C53.6806 6.94701 54.7981 6.43716 55.9924 6.30779C56.1893 6.2875 56.3887 6.27481 56.5856 6.27481M56.5856 3.47187C56.2864 3.47187 55.9847 3.48709 55.6855 3.52007C53.8903 3.71285 52.1795 4.49666 50.8676 5.72691C49.5558 6.95462 48.6658 8.60341 48.3666 10.3714C48.0649 12.1369 48.3564 13.9835 49.185 15.574C49.9517 17.0445 50.4506 18.7528 49.874 20.3077L45.4156 32.3308C45.3312 32.5591 45.2008 32.762 45.032 32.9243C44.8632 33.0867 44.6586 33.2135 44.4362 33.2871C44.2725 33.3429 44.1037 33.3683 43.9324 33.3683C43.8684 33.3683 43.8045 33.3632 43.7431 33.3556C43.5104 33.3277 43.2828 33.2465 43.0859 33.1222L33.9726 27.3882C32.5597 26.4991 31.9441 24.805 31.7189 23.1508C31.4683 21.3042 30.5886 19.5768 29.241 18.2805C27.8907 16.9843 26.1186 16.1701 24.2518 15.9875C23.9807 15.9621 23.7045 15.9469 23.4309 15.9469C21.8224 15.9469 20.2574 16.4035 18.9071 17.2684C17.3293 18.278 16.13 19.805 15.5239 21.568C14.9178 23.3309 14.9306 25.2663 15.5571 27.0242C16.1837 28.7795 17.4035 30.2939 18.989 31.2857C20.8904 32.4751 22.9532 33.655 24.0163 35.6299L29.5652 45.9377C31.0916 48.7732 31.8481 52.0879 33.8794 54.5866C35.1271 56.1214 37.0589 57.608 40.0147 58.7901C43.8736 60.3349 49.0008 61.1516 54.839 61.1516C60.6772 61.1516 67.1522 60.2841 72.6375 58.7114C76.9209 57.4812 82.7514 55.216 86.1986 51.406C87.0084 50.5107 87.6517 49.5641 88.1229 48.5822C89.465 45.7854 89.4838 42.5208 90.3053 39.5293L93.5941 27.5536C94.0922 25.7402 95.5444 24.3894 96.9876 23.1838C98.2586 22.1235 99.1766 20.7258 99.6395 19.143C100.102 17.5602 100.084 15.8936 99.5858 14.3209C99.0871 12.7482 98.1384 11.3708 96.8444 10.3384C95.5479 9.30605 93.988 8.68459 92.3334 8.54254C92.0931 8.52224 91.8501 8.5121 91.6123 8.5121C90.2058 8.5121 88.8121 8.86976 87.5795 9.54196C86.1244 10.3384 84.9532 11.5332 84.1912 12.9993C83.4317 14.4604 83.1248 16.094 83.3063 17.7301C83.4672 19.2575 83.2454 20.9002 82.1509 21.9777L74.3534 29.6547C74.1795 29.8272 73.9749 29.954 73.755 30.0301C73.5888 30.0884 73.4124 30.1189 73.2359 30.1189C73.1796 30.1189 73.1208 30.1163 73.0646 30.1087C72.8319 30.0834 72.6043 30.0047 72.4048 29.8804C72.2053 29.7561 72.0314 29.5862 71.9061 29.3883L64.9976 18.663C64.1018 17.2723 64.2186 15.499 64.6512 13.9024C65.1166 12.1724 65.0016 10.3055 64.3239 8.64654C63.6462 6.98506 62.4213 5.56457 60.8742 4.64378C59.5802 3.87265 58.097 3.4668 56.5882 3.4668" fill="#917127"/>
<path d="M62.6448 55.636C73.2273 54.0972 81.5316 50.9923 81.193 48.701C80.8543 46.4098 72.001 45.7999 61.4186 47.3387C50.8361 48.8775 42.5318 51.9824 42.8705 54.2737C43.2091 56.5649 52.0624 57.1748 62.6448 55.636Z" fill="#917127"/>
<path d="M34.9816 0.436185L35.0277 3.24928C35.0404 4.01533 35.4215 4.72811 36.0557 5.16695L38.3802 6.77769C38.7357 7.02374 38.5643 7.57925 38.1322 7.58686L35.2962 7.63252C34.5239 7.6452 33.8053 8.02316 33.3629 8.65223L31.739 10.958C31.491 11.3106 30.9309 11.1406 30.9233 10.712L30.8772 7.89886C30.8645 7.13281 30.4834 6.42003 29.8492 5.98119L27.5247 4.37045C27.1692 4.1244 27.3406 3.56889 27.7727 3.56128L30.6087 3.51562C31.381 3.50294 32.0996 3.12498 32.542 2.4959L34.1659 0.190135C34.4139 -0.162453 34.974 0.0074996 34.9816 0.436185Z" fill="#917127"/>
<path d="M34.9816 0.436185L35.0277 3.24928C35.0404 4.01533 35.4215 4.72811 36.0557 5.16695L38.3802 6.77769C38.7357 7.02374 38.5643 7.57925 38.1322 7.58686L35.2962 7.63252C34.5239 7.6452 33.8053 8.02316 33.3629 8.65223L31.739 10.958C31.491 11.3106 30.9309 11.1406 30.9233 10.712L30.8772 7.89886C30.8645 7.13281 30.4834 6.42003 29.8492 5.98119L27.5247 4.37045C27.1692 4.1244 27.3406 3.56889 27.7727 3.56128L30.6087 3.51562C31.381 3.50294 32.0996 3.12498 32.542 2.4959L34.1659 0.190135C34.4139 -0.162453 34.974 0.0074996 34.9816 0.436185Z" fill="#917127"/>
<path d="M74.737 2.14824L75.3891 3.45712C75.5655 3.81478 75.9057 4.06337 76.2995 4.12932L77.752 4.37284C77.9745 4.41089 78.0179 4.70767 77.8159 4.8066L76.4964 5.45343C76.1384 5.62845 75.8852 5.96582 75.8187 6.35646L75.5732 7.79725C75.5349 8.01793 75.2357 8.06105 75.1359 7.86066L74.4838 6.55178C74.3074 6.19665 73.9673 5.94553 73.5734 5.87958L72.1209 5.63606C71.8985 5.59802 71.855 5.30123 72.057 5.20231L73.3765 4.55547C73.7346 4.38045 73.9877 4.04308 74.0542 3.65244L74.2997 2.21165C74.3381 1.99097 74.6373 1.94785 74.737 2.14824Z" fill="#917127"/>
<path d="M87.5699 45.78C87.5697 45.78 87.5695 45.7798 87.5693 45.7797C86.9249 44.9453 85.9916 44.2655 84.8486 43.6949C83.1327 42.84 80.9284 42.2312 78.3916 41.8254C75.8573 41.4195 72.9932 41.2242 69.9757 41.2217C62.864 41.2217 54.9007 42.315 48.4462 44.4254C45.2189 45.4832 42.3676 46.7921 40.1786 48.3774C39.0841 49.1714 38.1558 50.0338 37.4347 50.9749C36.853 51.7367 36.407 52.555 36.1321 53.4218C36.025 53.7593 36.2482 54.1016 36.5945 54.1754C36.9389 54.2487 37.2746 54.0283 37.3876 53.6948C37.6156 53.0218 37.9733 52.3709 38.455 51.741C39.5495 50.3052 41.2961 48.9811 43.503 47.8321C46.8121 46.1021 51.1441 44.7602 55.7906 43.8597C60.4371 42.9567 65.3982 42.4925 69.9782 42.4925C73.9266 42.4925 77.5937 42.84 80.5166 43.5351C81.9768 43.8826 83.2529 44.3189 84.2784 44.8287C85.1709 45.2714 85.8687 45.7733 86.3518 46.3063C86.4705 46.4373 86.6705 46.4648 86.8113 46.3578L87.5704 45.7813C87.5709 45.7809 87.5706 45.78 87.5699 45.78Z" fill="#917127"/>
<path d="M42.0437 42.4168C42.0445 42.4168 42.0451 42.4173 42.0451 42.4181C42.1978 43.8076 41.1853 45.0549 39.7844 45.2045C38.383 45.3567 37.1249 44.3522 36.9714 42.9621C36.818 41.5721 37.8307 40.3241 39.232 40.1744C40.633 40.0223 41.8908 41.0261 42.0423 42.4155C42.0424 42.4162 42.043 42.4168 42.0437 42.4168Z" fill="#917127"/>
<path d="M60.8486 37.0978C60.8717 35.6998 59.748 34.548 58.3387 34.5251C56.9293 34.5021 55.7681 35.6168 55.745 37.0147C55.7219 38.4126 56.8456 39.5645 58.2549 39.5874C59.6642 39.6104 60.8255 38.4957 60.8486 37.0978Z" fill="#917127"/>
<path d="M84.4806 37.1008C84.634 38.4908 83.6213 39.7388 82.2199 39.891C80.8186 40.0432 79.5604 39.0387 79.407 37.6487C79.2535 36.2586 80.2662 35.0106 81.6676 34.8609C83.069 34.7088 84.3271 35.7133 84.4806 37.1033V37.1008Z" fill="#917127"/>
</svg>
