<svg width="26" height="21" viewBox="0 0 26 21" fill="none" xmlns="http://www.w3.org/2000/svg">
<path d="M13.474 3.4651C13.7957 3.25096 14.0439 2.92965 14.1808 2.54988C14.3176 2.17012 14.3358 1.75264 14.2325 1.36077C14.1291 0.968892 13.9099 0.62401 13.6081 0.378437C13.3063 0.132864 12.9384 0 12.5602 0C12.182 0 11.814 0.132864 11.5123 0.378437C11.2105 0.62401 10.9913 0.968892 10.8879 1.36077C10.7846 1.75264 10.8027 2.17012 10.9396 2.54988C11.0765 2.92965 11.3247 3.25096 11.6464 3.4651L9.15026 8.86599C9.05834 9.06642 8.92584 9.24208 8.76251 9.38003C8.59919 9.51798 8.40921 9.6147 8.20657 9.66307C8.00393 9.71145 7.7938 9.71023 7.59165 9.65952C7.3895 9.60881 7.2005 9.5099 7.03856 9.37007L3.13831 6.02752C3.37435 5.68912 3.49735 5.27477 3.48738 4.85166C3.4774 4.42854 3.33503 4.02145 3.08335 3.69639C2.83167 3.37132 2.48543 3.14734 2.10076 3.06075C1.71609 2.97416 1.31554 3.03004 0.964043 3.21932C0.61255 3.40861 0.330716 3.7202 0.164232 4.1036C-0.00225195 4.487 -0.043627 4.91972 0.0468144 5.33161C0.137256 5.7435 0.354213 6.11043 0.662512 6.37289C0.970811 6.63536 1.35238 6.77798 1.74536 6.77764L3.78464 18.5336C3.90084 19.2255 4.23897 19.8515 4.73999 20.3022C5.24101 20.753 5.87311 21 6.52595 21H18.5944C19.2473 21 19.8794 20.753 20.3804 20.3022C20.8814 19.8515 21.2195 19.2255 21.3358 18.5336L23.3249 6.74764H23.3583C23.7035 6.74764 24.0409 6.63732 24.3278 6.43067C24.6147 6.22401 24.8382 5.9303 24.9701 5.58673C25.1019 5.24317 25.1361 4.86519 25.0684 4.50068C25.0006 4.13616 24.834 3.80148 24.5895 3.53904C24.345 3.27659 24.0338 3.09818 23.6951 3.02638C23.3565 2.95458 23.0056 2.99264 22.6871 3.13572C22.3685 3.27881 22.0965 3.52049 21.9055 3.83017C21.7146 4.13984 21.6132 4.50358 21.6143 4.87533C21.6127 5.28095 21.7361 5.67568 21.9654 5.99751L18.0651 9.34007C17.9032 9.4799 17.7142 9.57881 17.512 9.62952C17.3099 9.68023 17.0997 9.68144 16.8971 9.63307C16.6945 9.5847 16.5045 9.48797 16.3412 9.35002C16.1778 9.21207 16.0453 9.03641 15.9534 8.83598L13.474 3.4651Z" fill="#614C19"/>
</svg>
