<svg preserveAspectRatio="none" width="100%" height="100%" overflow="visible" style="display: block;" viewBox="0 0 106.74 135.751" fill="none" xmlns="http://www.w3.org/2000/svg">
<g id="Group">
<path id="Vector" d="M50.8709 69.5163C54.9841 64.1534 61.2866 60.9114 67.6696 58.7098C72.8291 56.9275 78.1899 55.7098 83.615 55.0888C86.5208 54.7581 89.4588 54.5888 92.284 53.8227C98.9166 52.0323 102.724 42.75 106.74 40.2822C102.346 49.2823 107.006 60.4759 103.601 69.8873C101.758 74.9841 97.6528 79.0487 92.8716 81.5809C88.0904 84.1132 82.6733 85.2261 77.2803 85.6374C72.5393 86.0003 67.4281 85.9439 63.5564 88.6939C58.2601 92.452 53.2937 96.3069 48.6976 88.7423C45.1801 82.9439 46.9993 74.589 50.879 69.5163H50.8709Z" fill="var(--fill-0, #BCBA95)"/>
<path id="Vector_2" opacity="0.3" d="M97.669 58.4844C95.5198 62.4521 92.2518 65.928 88.0985 67.6538C81.1118 70.549 72.7889 68.178 65.8102 71.0893" stroke="var(--stroke-0, #233859)" stroke-width="1.64" stroke-miterlimit="10"/>
<path id="Vector_3" opacity="0.2" d="M83.607 55.0896C78.1819 55.7106 72.8291 56.9283 67.6616 58.7106C61.2785 60.9122 54.976 64.1542 50.8629 69.5172C46.9751 74.5898 45.164 82.9447 48.6815 88.7431C50.6777 92.0254 52.7383 93.1544 54.8714 93.0819C57.431 89.7351 61.5844 87.4447 64.8604 85.0334C74.6 77.8559 80.8381 66.9123 83.8163 55.0654C83.7438 55.0654 83.6714 55.0816 83.607 55.0896Z" fill="var(--fill-0, #233859)"/>
<path id="Vector_4" d="M20.2759 78.5567C15.6959 72.9115 13.74 65.5969 12.4601 58.4356C11.1803 51.2742 10.4398 43.9274 7.78357 37.1531C5.9886 32.5644 3.33237 28.3144 0 24.6934C9.34511 27.3466 18.9881 30.145 26.4819 36.3305C30.0718 39.2902 33.0339 42.9274 36.1489 46.3871C42.049 52.9436 48.7218 59.1856 52.0461 67.3631C54.3964 73.1615 54.8874 79.5164 55.3462 85.7584C55.4106 86.589 55.4589 87.4519 55.1209 88.21C54.1147 90.46 49.5911 92.2987 47.611 92.2584C44.3994 92.202 40.3748 90.4278 37.3563 89.3874C30.917 87.1697 24.6305 83.9358 20.2679 78.5567H20.2759Z" fill="var(--fill-0, #BCBA95)"/>
<path id="Vector_5" opacity="0.3" d="M15.4705 38.5165C18.9236 42.5246 20.6864 47.6859 22.7148 52.5811C24.7432 57.4763 27.3028 62.4602 31.7218 65.3716" stroke="var(--stroke-0, #233859)" stroke-width="1.64" stroke-miterlimit="10"/>
<path id="Vector_6" opacity="0.2" d="M52.0543 67.3636C48.73 59.1861 42.0572 52.9441 36.1571 46.3876C35.0866 45.1941 34.0321 43.9844 32.9616 42.7908C32.1889 43.6134 31.4644 44.4924 30.8286 45.4602C28.6875 48.7022 27.6008 52.5328 26.8684 56.3554C25.3873 64.0732 25.2505 72.1943 27.7135 79.654C28.3011 81.4363 29.6534 84.0976 31.4564 86.9767C33.3802 87.896 35.3603 88.7025 37.3645 89.396C40.383 90.4364 44.4076 92.2106 47.6192 92.267C49.5993 92.3073 54.1229 90.4606 55.1291 88.2186C55.4671 87.4605 55.4108 86.5896 55.3545 85.767C54.8956 79.525 54.4046 73.1701 52.0543 67.3717V67.3636Z" fill="var(--fill-0, #233859)"/>
<path id="Vector_7" d="M32.4382 74.0814C30.3857 67.8797 30.5064 61.1216 31.7379 54.7022C32.3497 51.5247 33.2512 48.3392 35.03 45.6376C39.9159 38.2424 49.7681 36.4036 57.2861 31.7181C67.7339 25.2181 73.6984 12.1696 71.7827 0.000121632C76.9663 13.218 81.2083 27.1294 80.8139 41.323C80.4194 55.5167 74.7609 70.1458 63.3471 78.5572C60.2804 80.8153 56.3041 82.9282 54.3079 86.3153C52.6739 89.0895 53.7283 93.017 49.9693 93.0492C43.3851 93.1057 34.1285 79.2104 32.4382 74.0814Z" fill="var(--fill-0, #D9D8AF)"/>
<path id="Vector_8" d="M68.5068 135.751H28.3171L23.6969 94.1296L75.8235 93.9521L68.5068 135.751Z" fill="var(--fill-0, #48A1DF)"/>
<path id="Vector_9" opacity="0.5" d="M67.1062 93.9844L23.6969 94.1296L24.7755 103.807H65.6734L61.013 135.751H68.5068L75.8235 93.9521L67.1062 93.9844Z" fill="var(--fill-0, #48A1DF)"/>
<g id="Group_2" opacity="0.4">
<path id="Vector_10" d="M73.4088 22.1376C73.9481 32.2829 69.4164 42.5733 61.5765 49.0088C59.7413 50.5169 57.737 51.8233 56.0387 53.4847C52.1268 57.2911 50.1064 62.7105 49.4142 68.1299C48.722 73.5493 48.1505 83.2913 48.6817 88.7269" stroke="var(--stroke-0, #233859)" stroke-width="1.64" stroke-miterlimit="10"/>
<path id="Vector_11" d="M67.9192 33.46C68.7241 34.7664 69.521 36.0809 70.3259 37.3874C70.3662 37.46 70.4144 37.5326 70.4949 37.5568C70.5754 37.589 70.672 37.5568 70.7525 37.5164C72.1048 36.9116 73.457 36.3068 74.8093 35.7019" stroke="var(--stroke-0, #233859)" stroke-width="1.64" stroke-miterlimit="10"/>
<path id="Vector_12" d="M48.4482 54.5898C50.1547 55.9044 51.2977 57.9205 51.5391 60.0657C54.5415 58.8479 57.6565 57.9125 60.8359 57.2995" stroke="var(--stroke-0, #233859)" stroke-width="1.64" stroke-miterlimit="10"/>
<path id="Vector_13" d="M42.9586 72.4199C45.6792 73.4361 47.9733 76.557 48.424 79.4361C51.201 77.0812 54.2516 74.7425 57.7369 73.678" stroke="var(--stroke-0, #233859)" stroke-width="1.64" stroke-miterlimit="10"/>
</g>
<path id="Vector_14" d="M74.4711 100.154H23.8417C21.7328 100.154 19.8412 98.8719 19.0443 96.9203L15.9776 89.3638C15.1083 87.2186 16.6779 84.8637 18.996 84.8637L79.3569 84.8234C81.6751 84.8234 83.2528 87.1783 82.3754 89.3235L79.2684 96.9203C78.4715 98.8719 76.58 100.146 74.4711 100.146V100.154Z" fill="var(--fill-0, #48A1DF)"/>
<path id="Vector_15" d="M45.3735 110.275C46.9109 111.105 48.3436 112.17 49.9857 112.783C53.8412 114.21 58.1154 112.928 62.0273 111.654C65.9392 110.38 70.2213 109.114 74.0608 110.573C74.3506 110.686 74.6403 110.815 74.8496 111.041C75.1313 111.347 75.2279 111.775 75.3004 112.178C75.574 113.807 75.6143 115.476 75.405 117.114C75.2923 118.041 74.9704 119.114 74.093 119.428C73.6342 119.597 73.1191 119.509 72.6442 119.42C69.0542 118.751 65.3999 118.089 61.7697 118.485C59.1456 118.767 56.5941 119.589 53.962 119.831C51.2252 120.081 48.4 119.67 45.9208 118.477C42.9024 117.017 40.5198 114.485 37.5899 112.856C35.2315 111.541 32.5753 111.089 30.1605 109.968C27.9309 108.928 28.3736 107.557 30.7722 107.517C35.4086 107.436 41.3489 107.597 45.3654 110.283L45.3735 110.275Z" fill="var(--fill-0, #A0CFEA)"/>
<path id="Vector_16" d="M33.5088 124.735C40.3747 126.549 47.5949 126.203 54.6782 125.848C51.5068 128.59 46.9912 128.928 42.8056 129.138C38.7569 129.34 34.7081 129.541 30.6513 129.743C29.3071 129.808 27.8421 129.84 26.7636 129.041C25.5401 128.138 24.3971 124.687 25.8218 123.493C27.3511 122.211 31.8345 124.299 33.5007 124.735H33.5088Z" fill="var(--fill-0, #A0CFEA)"/>
<path id="Vector_17" d="M15.8892 90.6706C22.9564 89.1061 30.2248 92.2755 37.461 91.9771C42.0812 91.7835 46.5405 90.1787 51.1446 89.8561C55.9661 89.5174 60.7634 90.5738 65.5849 90.9367C70.4305 91.2996 78.375 91.098 83.2207 90.7512" stroke="var(--stroke-0, #F5FDFF)" stroke-width="1.64" stroke-linecap="round" stroke-linejoin="round"/>
<path id="Vector_18" d="M83.0758 96.1304C75.3646 97.34 67.5006 96.211 59.6928 96.1062C55.2738 96.0497 50.8629 96.3239 46.4439 96.4933C37.5737 96.8239 25.9345 96.4529 17.0643 96.1465" stroke="var(--stroke-0, #F5FDFF)" stroke-width="1.64" stroke-linecap="round" stroke-linejoin="round"/>
</g>
</svg>
