<svg preserveAspectRatio="none" width="100%" height="100%" overflow="visible" style="display: block;" viewBox="0 0 58.2682 106.138" fill="none" xmlns="http://www.w3.org/2000/svg">
<g id="Group">
<path id="Vector" d="M51.3435 12.8713L38.468 9.67403L30.07 43.623L42.9455 46.8202L51.3435 12.8713Z" fill="var(--fill-0, #EBE8FF)"/>
<path id="Vector_2" d="M48.8023 0.516133L46.7417 0L38.4672 9.66943L51.3378 12.8711L48.8023 0.516133Z" fill="var(--fill-0, #F4D995)"/>
<path id="Vector_3" d="M58.2682 22.3084L46.3814 16.4094L30.8868 47.7514L42.7736 53.6504L58.2682 22.3084Z" fill="var(--fill-0, #E8D095)"/>
<path id="Vector_4" d="M34.684 11.6045H21.4189V46.5806H34.684V11.6045Z" fill="var(--fill-0, #FBCE50)"/>
<path id="Vector_5" d="M34.684 3.70119H21.4189V11.5964H34.684V3.70119Z" fill="var(--fill-0, #F4D995)"/>
<path id="Vector_6" d="M15.6712 14.226L5.30418 15.1456L8.38314 49.9854L18.7502 49.0657L15.6712 14.226Z" fill="var(--fill-0, #97999B)"/>
<path id="Vector_7" d="M17.6664 20.3063L4.453 21.4785L7.53197 56.3183L20.7453 55.1461L17.6664 20.3063Z" fill="var(--fill-0, #BCBCBC)"/>
<path id="Vector_8" opacity="0.3" d="M14.1145 20.6223L7.99695 21.1651L11.0759 56.0048L17.1935 55.4621L14.1145 20.6223Z" fill="var(--fill-0, white)"/>
<path id="Vector_9" d="M44.3592 106.138H8.21028L3.9764 44.452H48.585L44.3592 106.138Z" fill="var(--fill-0, #48A1DF)"/>
<path id="Vector_10" d="M34.684 10.4278H21.4189V11.5971H34.684V10.4278Z" fill="var(--fill-0, #2C5281)"/>
<path id="Vector_11" opacity="0.1" d="M48.2388 49.452L48.5849 44.452H41.8316L41.4855 49.452H4.32235L5.3124 63.936H40.4954L37.6058 106.138H44.359L47.4741 60.6295L48.2388 49.452Z" fill="var(--fill-0, #233859)"/>
<path id="Vector_12" d="M52.5693 44.452H3.87087e-05V58.9359H52.5693V44.452Z" fill="var(--fill-0, #48A1DF)"/>
<path id="Vector_13" opacity="0.3" d="M24.3167 14.5733C24.9767 23.5975 25.0733 32.6621 24.6064 41.6945" stroke="var(--stroke-0, #1B4268)" stroke-width="1.87" stroke-linecap="round" stroke-linejoin="round"/>
<path id="Vector_14" opacity="0.3" d="M30.5633 14.3954C30.7004 21.46 30.8376 28.5245 30.4181 35.581C30.281 37.8956 30.6843 42.2021 30.7569 42.0408" stroke="var(--stroke-0, #1B4268)" stroke-width="1.87" stroke-linecap="round" stroke-linejoin="round"/>
<path id="Vector_15" d="M5.12744 20.6699C8.983 20.6215 12.8305 20.3796 16.6619 19.9522" stroke="var(--stroke-0, #2C5281)" stroke-width="1.87" stroke-miterlimit="10"/>
</g>
</svg>
