<svg width="47" height="37" viewBox="0 0 47 37" fill="none" xmlns="http://www.w3.org/2000/svg">
<g clip-path="url(#clip0_481_6758)">
<path d="M16.3701 26.0699C14.5101 29.0599 13.7001 31.5899 10.3701 33.6599H31.2101C26.9001 32.0999 25.7601 29.4099 23.7201 25.9599C23.0101 24.7599 17.1401 24.8299 16.3701 26.0699Z" fill="#90CEF4" stroke="#469CD6" stroke-miterlimit="10"/>
<path d="M34.1401 33.1904H7.43012C6.98277 33.1904 6.62012 33.5531 6.62012 34.0004V35.1504C6.62012 35.5978 6.98277 35.9604 7.43012 35.9604H34.1401C34.5875 35.9604 34.9501 35.5978 34.9501 35.1504V34.0004C34.9501 33.5531 34.5875 33.1904 34.1401 33.1904Z" fill="#90CEF4" stroke="#469CD6" stroke-miterlimit="10"/>
<path d="M37.2 0.5H2.51C1.39991 0.5 0.5 1.39991 0.5 2.51V27.06C0.5 28.1701 1.39991 29.07 2.51 29.07H37.2C38.3101 29.07 39.21 28.1701 39.21 27.06V2.51C39.21 1.39991 38.3101 0.5 37.2 0.5Z" fill="white" stroke="#469CD6" stroke-miterlimit="10"/>
<path d="M0.5 20.6396H39.21V26.9296C39.21 28.0396 38.31 28.9396 37.2 28.9396H2.51C1.4 28.9396 0.5 28.0396 0.5 26.9296V20.6396Z" fill="#90CEF4" stroke="#469CD6" stroke-miterlimit="10"/>
<path d="M19.86 26.3597C20.7712 26.3597 21.51 25.6568 21.51 24.7897C21.51 23.9226 20.7712 23.2197 19.86 23.2197C18.9487 23.2197 18.21 23.9226 18.21 24.7897C18.21 25.6568 18.9487 26.3597 19.86 26.3597Z" fill="white" stroke="#469CD6" stroke-miterlimit="10"/>
<path d="M37.09 31.4096C42.2263 31.4096 46.39 27.2458 46.39 22.1096C46.39 16.9733 42.2263 12.8096 37.09 12.8096C31.9538 12.8096 27.79 16.9733 27.79 22.1096C27.79 27.2458 31.9538 31.4096 37.09 31.4096Z" fill="white"/>
<path d="M46.39 22.1096H45.89C45.89 24.5396 44.91 26.7396 43.31 28.3296C41.72 29.9196 39.52 30.9096 37.09 30.9096C34.66 30.9096 32.46 29.9296 30.87 28.3296C29.28 26.7396 28.29 24.5396 28.29 22.1096C28.29 19.6796 29.27 17.4796 30.87 15.8896C32.46 14.2996 34.66 13.3096 37.09 13.3096C39.52 13.3096 41.72 14.2896 43.31 15.8896C44.9 17.4796 45.89 19.6796 45.89 22.1096H46.89C46.89 16.6996 42.5 12.3096 37.09 12.3096C31.68 12.3096 27.29 16.6996 27.29 22.1096C27.29 27.5196 31.68 31.9096 37.09 31.9096C42.5 31.9096 46.89 27.5196 46.89 22.1096H46.39Z" fill="#469CD6"/>
<path d="M33.3999 17.9004H41.2699" stroke="#4293CC" stroke-linecap="round" stroke-linejoin="round"/>
<path d="M33.3999 22.0801H39.2699" stroke="#4293CC" stroke-linecap="round" stroke-linejoin="round"/>
<path d="M33.3999 26.1396H37.6699" stroke="#4293CC" stroke-linecap="round" stroke-linejoin="round"/>
<path d="M18.5202 6.19029L24.8502 10.6003C25.3402 10.9403 25.3402 11.6803 24.8502 12.0203L18.5202 16.4303C17.9502 16.8303 17.1602 16.4203 17.1602 15.7203V6.90029C17.1602 6.20029 17.9502 5.79029 18.5202 6.19029Z" fill="#90CEF4" stroke="#469CD6" stroke-miterlimit="10"/>
</g>
<defs>
<clipPath id="clip0_481_6758">
<rect width="46.89" height="36.46" fill="white"/>
</clipPath>
</defs>
</svg>
