<svg width="64" height="64" viewBox="0 0 64 64" fill="none" xmlns="http://www.w3.org/2000/svg">
<path opacity="0.4" d="M32 1C38.7019 1 43.9775 1.32043 48.1328 2.19824C52.2771 3.07379 55.2351 4.489 57.373 6.62695C59.511 8.76491 60.9262 11.7229 61.8018 15.8672C62.6796 20.0225 63 25.2981 63 32C63 38.7019 62.6796 43.9775 61.8018 48.1328C60.9262 52.2771 59.511 55.2351 57.373 57.373C55.2351 59.511 52.2771 60.9262 48.1328 61.8018C43.9775 62.6796 38.7019 63 32 63C25.2981 63 20.0225 62.6796 15.8672 61.8018C11.7229 60.9262 8.76491 59.511 6.62695 57.373C4.489 55.2351 3.07379 52.2771 2.19824 48.1328C1.32043 43.9775 1 38.7019 1 32C1 25.2981 1.32043 20.0225 2.19824 15.8672C3.07379 11.7229 4.489 8.76491 6.62695 6.62695C8.76491 4.489 11.7229 3.07379 15.8672 2.19824C20.0225 1.32043 25.2981 1 32 1Z" fill="#FCD9C0" stroke="#FAB889" stroke-width="2"/>
<path d="M55.3628 24.0693H10.9883V47.6148H55.3628V24.0693Z" fill="white"/>
<path opacity="0.2" d="M55.3628 24.0693H45.421H20.9301H10.9883V25.793H20.9301L22.3337 47.6148H44.0174L45.421 25.793H55.3628V24.0693Z" fill="#2C5281"/>
<path d="M56.4511 24.0688H10.1202C9.20749 24.0688 8.79295 22.927 9.49476 22.3416L12.8329 19.5598C14.3129 18.327 16.1748 17.6543 18.0984 17.6543H48.4693C50.3929 17.6543 52.2584 18.3307 53.7348 19.5598L57.0729 22.3416C57.7748 22.927 57.3602 24.0688 56.4475 24.0688H56.4511Z" fill="#48A1DF"/>
<path d="M42.3351 47.6146H23.9642L22.5605 24.0691L33.1496 13.7637L43.7387 24.0691L42.3351 47.6146Z" fill="#48A1DF"/>
<path d="M22.5605 24.0691L33.1496 13.7637L43.7387 24.0691" stroke="#2C5281" stroke-width="3.18281" stroke-linecap="round" stroke-linejoin="round"/>
<path d="M33.0683 30.6913C35.6992 30.6913 37.832 28.5586 37.832 25.9277C37.832 23.2968 35.6992 21.1641 33.0683 21.1641C30.4374 21.1641 28.3047 23.2968 28.3047 25.9277C28.3047 28.5586 30.4374 30.6913 33.0683 30.6913Z" fill="white" stroke="#2B4365" stroke-width="0.795702" stroke-miterlimit="10"/>
<path d="M33.0684 23.1816V25.9271H36.2211" stroke="#2C5281" stroke-width="0.795702" stroke-linecap="round" stroke-linejoin="round"/>
<path d="M39.6801 34.2832H26.2256V46.5596H39.6801V34.2832Z" fill="#BEE3F8"/>
<path d="M38.2803 36.3203V46.5603" stroke="#48A1DF" stroke-width="0.39579" stroke-miterlimit="10"/>
<path d="M36.2178 36.3203V46.5603" stroke="#48A1DF" stroke-width="0.39579" stroke-miterlimit="10"/>
<path d="M33.9346 36.3203V46.5603" stroke="#48A1DF" stroke-width="0.39579" stroke-miterlimit="10"/>
<path d="M31.7236 36.3203V46.5603" stroke="#48A1DF" stroke-width="0.39579" stroke-miterlimit="10"/>
<path d="M29.6621 36.3203V46.5603" stroke="#48A1DF" stroke-width="0.39579" stroke-miterlimit="10"/>
<path d="M27.3779 36.3203V46.5603" stroke="#48A1DF" stroke-width="0.39579" stroke-miterlimit="10"/>
<path opacity="0.2" d="M39.6801 32.6797H26.2256V37.4033H39.6801V32.6797Z" fill="#2C5281"/>
<path d="M40.036 36.3197H25.8615C25.116 36.3197 24.556 35.6397 24.6978 34.9088L24.9015 33.8433C25.0324 33.167 25.6251 32.6797 26.3124 32.6797H39.5851C40.2724 32.6797 40.8651 33.167 40.996 33.8433L41.1997 34.9088C41.3415 35.6397 40.7815 36.3197 40.036 36.3197Z" fill="#2C5281"/>
<path d="M31.3739 38.0869H34.763C35.7448 38.0869 36.5448 38.8833 36.5448 39.8687V42.9451C36.5448 43.7887 35.8612 44.4724 35.0175 44.4724H31.123C30.2793 44.4724 29.5957 43.7887 29.5957 42.9451V39.8687C29.5957 38.8869 30.3921 38.0869 31.3775 38.0869H31.3739Z" fill="#2C5281"/>
<path d="M15.611 36.1738H17.5528C18.131 36.1738 18.5965 36.6429 18.5965 37.2175V40.1375H14.5674V37.2175C14.5674 36.6393 15.0365 36.1738 15.611 36.1738Z" fill="white" stroke="#48A1DF" stroke-width="0.39579" stroke-miterlimit="10"/>
<path d="M15.611 27.9746H17.5528C18.131 27.9746 18.5965 28.4437 18.5965 29.0182V31.9382H14.5674V29.0182C14.5674 28.4401 15.0365 27.9746 15.611 27.9746Z" fill="white" stroke="#48A1DF" stroke-width="0.39579" stroke-miterlimit="10"/>
<path d="M19.1234 31.9375H14.1016V32.6793H19.1234V31.9375Z" fill="#48A1DF"/>
<path d="M19.1234 40.0508H14.1016V40.7926H19.1234V40.0508Z" fill="#48A1DF"/>
<path d="M49.0729 36.1738H51.0147C51.5929 36.1738 52.0584 36.6429 52.0584 37.2175V40.1375H48.0293V37.2175C48.0293 36.6393 48.4984 36.1738 49.0729 36.1738Z" fill="white" stroke="#48A1DF" stroke-width="0.39579" stroke-miterlimit="10"/>
<path d="M49.0729 27.9746H51.0147C51.5929 27.9746 52.0584 28.4437 52.0584 29.0182V31.9382H48.0293V29.0182C48.0293 28.4401 48.4984 27.9746 49.0729 27.9746Z" fill="white" stroke="#48A1DF" stroke-width="0.39579" stroke-miterlimit="10"/>
<path d="M52.5853 31.9375H47.5635V32.6793H52.5853V31.9375Z" fill="#48A1DF"/>
<path d="M52.5853 40.0508H47.5635V40.7926H52.5853V40.0508Z" fill="#48A1DF"/>
<path d="M36.3386 8.94141H32.9531V10.8505H36.3386V8.94141Z" fill="#F1BC41"/>
<path d="M32.9492 8.94141V13.1632" stroke="#2C5281" stroke-width="0.795702" stroke-linecap="round" stroke-linejoin="round"/>
</svg>
