<svg width="64" height="64" viewBox="0 0 64 64" fill="none" xmlns="http://www.w3.org/2000/svg">
<g clip-path="url(#clip0_486_1578)">
<path opacity="0.7" d="M32 1C38.7019 1 43.9775 1.32043 48.1328 2.19824C52.2771 3.07379 55.2351 4.489 57.373 6.62695C59.511 8.76491 60.9262 11.7229 61.8018 15.8672C62.6796 20.0225 63 25.2981 63 32C63 38.7019 62.6796 43.9775 61.8018 48.1328C60.9262 52.2771 59.511 55.2351 57.373 57.373C55.2351 59.511 52.2771 60.9262 48.1328 61.8018C43.9775 62.6796 38.7019 63 32 63C25.2981 63 20.0225 62.6796 15.8672 61.8018C11.7229 60.9262 8.76491 59.511 6.62695 57.373C4.489 55.2351 3.07379 52.2771 2.19824 48.1328C1.32043 43.9775 1 38.7019 1 32C1 25.2981 1.32043 20.0225 2.19824 15.8672C3.07379 11.7229 4.489 8.76491 6.62695 6.62695C8.76491 4.489 11.7229 3.07379 15.8672 2.19824C20.0225 1.32043 25.2981 1 32 1Z" fill="#D7F4DB" stroke="#ACE7B6" stroke-width="2"/>
<path d="M50.3269 31.5345H13.1523L14.556 22.4072C14.716 21.3563 15.6251 20.5781 16.6905 20.5781H46.7923C47.8578 20.5781 48.7633 21.3527 48.9269 22.4072L50.3305 31.5345H50.3269Z" fill="#5BAEE8"/>
<path d="M46.6219 26.149L41.4873 22.2835V16.0908H46.6219V26.1526V26.149Z" fill="white"/>
<path d="M47.7998 15.3271H40.3852C40.2507 15.3271 40.1416 15.4362 40.1416 15.5671V17.8035C40.1416 17.9381 40.2507 18.0435 40.3852 18.0435H47.7998C47.9343 18.0435 48.0398 17.9344 48.0398 17.8035V15.5671C48.0398 15.4326 47.9307 15.3271 47.7998 15.3271Z" fill="#2C5281"/>
<path fill-rule="evenodd" clip-rule="evenodd" d="M49.3419 50.1815H14.6655L13.3164 33.2797L31.72 16.127L50.6946 33.2797L49.3419 50.1815Z" fill="white"/>
<path opacity="0.2" d="M31.051 17.3343L18.32 28.6143L13.3164 33.2797L13.4946 35.5852L31.731 19.4288L50.5128 35.6688L50.6982 33.2797L47.7564 30.6179L32.3855 17.327C32.0037 16.9961 31.4364 16.9997 31.0546 17.3343H31.051Z" fill="#2C5281"/>
<path d="M36.0254 33.8213H44.2036C44.4509 33.8213 44.6509 34.0213 44.6509 34.2649V41.4904H35.5781V34.2649C35.5781 34.0177 35.7781 33.8213 36.0218 33.8213H36.0254Z" fill="white" stroke="#48A1DF" stroke-width="0.709123" stroke-miterlimit="10"/>
<path opacity="0.2" d="M45.8399 42.5273H34.5381V43.9528H45.8399V42.5273Z" fill="#2C5281"/>
<path d="M45.8399 41.4902H34.5381V43.1593H45.8399V41.4902Z" fill="#48A1DF"/>
<path d="M40.1523 33.749V41.8945" stroke="#48A1DF" stroke-width="1.77281" stroke-miterlimit="10"/>
<path d="M44.8512 37.8213H35.4512" stroke="#48A1DF" stroke-width="1.77281" stroke-miterlimit="10"/>
<path d="M24.316 31.4395C27.5996 31.4395 30.2651 34.1013 30.2651 37.3813V47.7995H18.3633V37.3813C18.3633 34.1013 21.0287 31.4395 24.3124 31.4395H24.316Z" fill="#2C5281"/>
<path d="M27.2799 42.6394C27.8617 42.6394 28.338 42.1666 28.338 41.5848C28.338 41.003 27.8653 40.5303 27.2799 40.5303C26.6944 40.5303 26.2217 41.003 26.2217 41.5848C26.2217 42.1666 26.6944 42.6394 27.2799 42.6394Z" fill="#48A1DF"/>
<path d="M28.9568 39.291V37.371C28.9568 34.8146 26.8804 32.7383 24.3168 32.7383C21.7531 32.7383 19.6768 34.8146 19.6768 37.371V39.291H28.9531H28.9568Z" fill="#48A1DF"/>
<path d="M20.8076 39.7812V46.9631" stroke="#48A1DF" stroke-width="0.354562" stroke-miterlimit="10"/>
<path d="M24.2324 39.7812V46.9631" stroke="#48A1DF" stroke-width="0.354562" stroke-miterlimit="10"/>
<path d="M27.2764 43.8213V46.9631" stroke="#48A1DF" stroke-width="0.354562" stroke-miterlimit="10"/>
<path d="M32.4178 47.8184H16.0469V49.6293H32.4178V47.8184Z" fill="#48A1DF"/>
<path d="M10.9854 34.491L31.7199 16.1201L52.9635 34.491" stroke="#2C5281" stroke-width="2.30465" stroke-linecap="round" stroke-linejoin="round"/>
<path d="M10.9854 34.491L31.7199 16.1201L52.9635 34.491" stroke="#5BAEE8" stroke-width="0.354562" stroke-linecap="round" stroke-linejoin="round"/>
<path opacity="0.2" d="M46.6219 16.4141H41.4873V19.1341H46.6219V16.4141Z" fill="#2C5281"/>
</g>
<defs>
<clipPath id="clip0_486_1578">
<rect width="64" height="64" fill="white"/>
</clipPath>
</defs>
</svg>
