<svg width="66" height="66" viewBox="0 0 66 66" fill="none" xmlns="http://www.w3.org/2000/svg">
<path d="M32.6523 1C39.4914 1 44.8764 1.32829 49.1182 2.22852C53.3484 3.12631 56.3702 4.57812 58.5557 6.77344C60.7415 8.96926 62.1879 12.0063 63.082 16.2578C63.9785 20.5203 64.3057 25.9311 64.3057 32.8018C64.3057 39.6724 63.9785 45.0832 63.082 49.3457C62.1879 53.5972 60.7415 56.6343 58.5557 58.8301C56.3702 61.0254 53.3484 62.4772 49.1182 63.375C44.8764 64.2752 39.4914 64.6035 32.6523 64.6035C25.8133 64.6035 20.4283 64.2752 16.1865 63.375C11.9563 62.4772 8.93445 61.0255 6.74902 58.8301C4.5632 56.6343 3.1178 53.5972 2.22363 49.3457C1.32719 45.0832 1 39.6724 1 32.8018C1 25.9311 1.32719 20.5203 2.22363 16.2578C3.11779 12.0063 4.56321 8.96925 6.74902 6.77344C8.93444 4.57804 11.9563 3.12635 16.1865 2.22852C20.4283 1.32828 25.8133 1.00001 32.6523 1Z" fill="#DAF0FB" stroke="#BEE3F8" stroke-width="2"/>
<path d="M30.1819 33.2051H36.9054C45.4136 33.2051 52.3226 40.1456 52.3226 48.6927V48.7039C52.3226 49.8072 51.4321 50.7018 50.3338 50.7018H16.7535C15.6552 50.7018 14.7646 49.8072 14.7646 48.7039V48.6927C14.7646 40.1456 21.6737 33.2051 30.1819 33.2051Z" fill="#48A1DF"/>
<path d="M25.6588 33.2051H41.4323C48.0074 33.2051 53.3431 38.5652 53.3431 45.1703H13.748C13.748 38.5652 19.0838 33.2051 25.6588 33.2051Z" fill="#2C5281"/>
<path d="M47.4212 53.348H19.6702C18.9058 53.348 18.2861 52.7255 18.2861 51.9576L20.9688 25.3323C20.9688 19.3721 25.7814 16.1553 31.7145 16.1553H35.3805C41.3137 16.1553 46.1262 19.3721 46.1262 25.3323L48.8089 51.9576C48.8089 52.7255 48.1893 53.348 47.4249 53.348H47.4212Z" fill="white"/>
<path d="M37.5812 22.8203H29.8818V40.7159H37.5812V22.8203Z" stroke="#2C5281" stroke-miterlimit="10"/>
<path d="M30.3008 39.5566H36.7905C43.5029 39.5566 48.9499 45.0286 48.9499 51.7716C48.9499 52.6401 48.2486 53.3483 47.3804 53.3483H19.7072C18.8427 53.3483 18.1377 52.6438 18.1377 51.7716C18.1377 45.0286 23.5848 39.5566 30.2971 39.5566H30.3008Z" fill="#5BAEE8"/>
<path d="M25.4571 38.3711H28.2289C28.9339 38.3711 29.509 38.9489 29.509 39.6571V52.1627C29.509 53.6388 28.3142 54.8391 26.8448 54.8391C25.3755 54.8391 24.1807 53.6388 24.1807 52.1627V39.6571C24.1807 38.9489 24.7558 38.3711 25.4608 38.3711H25.4571Z" fill="#2C5281"/>
<path d="M39.5206 38.3711H42.2923C42.9973 38.3711 43.5725 38.9489 43.5725 39.6571V52.1627C43.5725 53.6388 42.3777 54.8391 40.9083 54.8391C39.4389 54.8391 38.2441 53.6388 38.2441 52.1627V39.6571C38.2441 38.9489 38.8193 38.3711 39.5243 38.3711H39.5206Z" fill="#2C5281"/>
<path d="M31.6283 45.793H22.2295V47.9735H31.6283V45.793Z" fill="white"/>
<path d="M45.4798 45.793H36.0811V47.9735H45.4798V45.793Z" fill="white"/>
<path d="M29.6885 10.9893H26.4307V16.1444H29.6885V10.9893Z" fill="#2C5281"/>
<path d="M40.1934 10.9893H36.9355V16.1444H40.1934V10.9893Z" fill="#2C5281"/>
<path d="M29.4547 9.06934H37.1615C38.8312 9.06934 40.1893 10.4336 40.1893 12.111V12.9534H26.4307V12.111C26.4307 10.4336 27.7887 9.06934 29.4585 9.06934H29.4547Z" fill="#5BAEE8"/>
<path d="M22.7051 24.4639H30.7198" stroke="#2C5281" stroke-width="0.861667" stroke-miterlimit="10"/>
<path d="M36.9385 24.4639H44.9532" stroke="#2C5281" stroke-width="0.861667" stroke-miterlimit="10"/>
<path d="M27.0573 29.8984H40.0293C44.4597 29.8984 48.2296 26.622 49.6285 22.0484C50.0997 20.5052 49.6359 18.8204 48.4003 17.7842C46.7231 16.3752 44.6601 15.5439 42.4301 15.5439H24.6492C22.4192 15.5439 20.3561 16.3752 18.679 17.7842C17.4471 18.8204 16.9795 20.5052 17.4508 22.0484C18.8534 26.622 22.6195 29.8984 27.0499 29.8984H27.0573Z" fill="#48A1DF"/>
</svg>
