<svg width="168" height="37" viewBox="0 0 168 37" fill="none" xmlns="http://www.w3.org/2000/svg">
<path fill-rule="evenodd" clip-rule="evenodd" d="M167.328 28.5999H166.697C166.269 28.5999 166.025 28.3747 166.025 27.9232V22.3876C166.025 20.9315 165.739 19.7832 164.213 19.7832C162.299 19.7832 161.158 21.7722 161.158 23.7612V27.9232C161.158 28.3747 160.934 28.5999 160.507 28.5999H159.855C159.428 28.5999 159.204 28.3747 159.204 27.9232V22.3876C159.204 21.0341 159 19.7832 157.411 19.7832C155.456 19.7832 154.316 21.8335 154.316 23.7612V27.9232C154.316 28.3747 154.092 28.5999 153.644 28.5999H153.013C152.586 28.5999 152.34 28.3747 152.34 27.9232V18.9023C152.34 18.4508 152.586 18.2256 153.013 18.2256H153.583C154.031 18.2256 154.255 18.4508 154.255 18.9023V19.8244C154.255 20.1321 154.194 20.4187 154.194 20.4187H154.235C154.744 19.209 156.189 17.9792 157.819 17.9792C159.549 17.9792 160.548 18.7786 160.914 20.3373H160.955C161.504 19.1276 162.93 17.9792 164.599 17.9792C166.941 17.9792 168 19.3116 168 21.9572V27.9232C168 28.3747 167.776 28.5999 167.328 28.5999ZM144.608 28.8463C141.533 28.8463 139.069 26.5496 139.069 23.3921C139.069 20.2548 141.533 17.9792 144.608 17.9792C147.682 17.9792 150.167 20.2548 150.167 23.3921C150.167 26.5496 147.682 28.8463 144.608 28.8463ZM144.608 19.7007C142.672 19.7007 141.065 21.2392 141.065 23.3921C141.065 25.5651 142.672 27.1237 144.608 27.1237C146.562 27.1237 148.151 25.5651 148.151 23.3921C148.151 21.2392 146.562 19.7007 144.608 19.7007ZM133.88 28.8463C130.642 28.8463 128.381 26.5295 128.381 23.4122C128.381 20.3373 130.662 17.9792 133.88 17.9792C135.611 17.9792 136.731 18.656 137.28 19.0863C137.627 19.3116 137.647 19.6605 137.403 20.0095L137.198 20.3161C136.955 20.6852 136.67 20.7063 136.283 20.48C135.855 20.1723 135.061 19.7007 133.982 19.7007C131.905 19.7007 130.397 21.2593 130.397 23.3921C130.397 25.5038 131.905 27.1237 134.022 27.1237C135.264 27.1237 136.16 26.5496 136.649 26.1805C137.016 25.9352 137.321 25.9754 137.566 26.3656L137.728 26.6722C137.932 27.0212 137.871 27.35 137.545 27.5753C136.974 28.0469 135.733 28.8463 133.88 28.8463ZM125.696 28.5999H124.922C124.474 28.5999 124.25 28.3747 124.25 27.9232V27.1237C124.25 26.6722 124.474 26.447 124.922 26.447H125.696C126.145 26.447 126.368 26.6722 126.368 27.1237V27.9232C126.368 28.3747 126.145 28.5999 125.696 28.5999ZM107.064 37C104.681 37 102.218 36.5199 100.987 35.9997C99.6367 35.4403 99.2791 34.5606 99.795 33.1605L100.232 31.9604C100.749 30.6005 101.544 30.1998 103.013 30.6798C104.006 31.0002 105.08 31.2403 106.668 31.2403C109.249 31.2403 111.474 30.3203 111.474 27.2802V26.2408C111.474 25.9997 111.514 25.4805 111.514 25.4805H111.435C110.322 27.1195 108.852 28.0003 106.429 28.0003C100.154 28.0003 97.094 22.9205 97.094 17.6398C97.094 12.4003 100.073 7.52033 106.47 7.52033C110.839 7.52033 112.071 10.1998 112.071 10.1998H112.15C112.15 10.1998 112.11 10.0402 112.11 9.80012V9.71976C112.11 8.75962 112.865 8.0004 114.295 8.0004H116.161C117.591 8.0004 118.346 8.75962 118.346 10.1998V26.7198C118.346 34.2402 112.269 37 107.064 37ZM107.661 13.2801C105.238 13.2801 104.006 15.0396 104.006 17.3998C104.006 19.9598 105.198 22.2395 107.939 22.2395C109.727 22.2395 111.633 21.3207 111.633 17.7202C111.633 14.0805 109.727 13.2801 107.661 13.2801ZM92.167 28.5999H89.6642C88.234 28.5999 87.4791 27.8407 87.4791 26.4005V16.52C87.4791 14.6008 86.7241 13.8003 85.2143 13.8003C82.1557 13.8003 80.7654 16.3603 80.7654 19.2798V26.4005C80.7654 27.8407 80.0105 28.5999 78.5814 28.5999H76.0785C74.6484 28.5999 73.8934 27.8407 73.8934 26.4005V10.1998C73.8934 8.75962 74.6484 8.0004 76.0785 8.0004H78.3024C79.7326 8.0004 80.4477 8.75962 80.4477 10.1998V10.5604C80.4477 10.7603 80.4079 11.0796 80.4079 11.0796H80.4876C81.4407 9.48078 83.3878 7.52033 87.002 7.52033C91.1342 7.52033 94.3521 9.43954 94.3521 15.2405V26.4005C94.3521 27.8407 93.5972 28.5999 92.167 28.5999ZM67.6558 28.5999H65.1529C63.7228 28.5999 62.9678 27.8407 62.9678 26.4005V10.1998C62.9678 8.75962 63.7228 8.0004 65.1529 8.0004H67.6558C69.0859 8.0004 69.8409 8.75962 69.8409 10.1998V26.4005C69.8409 27.8407 69.0859 28.5999 67.6558 28.5999ZM67.5761 5.40022H65.2326C63.8025 5.40022 63.0475 4.63994 63.0475 3.20079V2.20048C63.0475 0.760281 63.8025 0 65.2326 0H67.5761C69.0063 0 69.7612 0.760281 69.7612 2.20048V3.20079C69.7612 4.63994 69.0063 5.40022 67.5761 5.40022ZM50.4527 29.08C46.7587 29.08 45.2489 26.7198 45.2489 26.7198H45.1692C45.1692 26.7198 45.2489 27.4399 45.2489 28.4804V34.3998C45.2489 35.84 44.4939 36.6003 43.0638 36.6003H40.5609C39.1318 36.6003 38.3769 35.84 38.3769 34.3998V10.1998C38.3769 8.75962 39.1318 8.0004 40.5609 8.0004H42.3497C43.7788 8.0004 44.5338 8.75962 44.5338 9.80012V10.24C44.5338 10.4399 44.4939 10.6408 44.4939 10.6408H44.5736C44.5736 10.6408 46.4411 7.52033 50.7704 7.52033C56.3328 7.52033 59.9868 11.9202 59.9868 18.3208C59.9868 24.8408 55.8955 29.08 50.4527 29.08ZM49.0623 13.3604C46.9967 13.3604 45.0507 14.8799 45.0507 18.4403C45.0507 20.9199 46.3614 23.3604 49.0623 23.3604C51.2076 23.3604 53.075 21.5998 53.075 18.4403C53.075 15.36 51.4456 13.3604 49.0623 13.3604ZM28.3236 30.8004C26.6167 35.4001 23.0412 37 19.7835 37C18.7108 37 17.7179 36.76 16.9231 36.4808C15.6125 36.0399 15.2948 34.8799 15.8505 33.6004L16.3674 32.4404C16.9231 31.2001 17.7577 31.0002 18.5924 31.1599C18.9101 31.2403 19.3075 31.3608 19.7835 31.3608C21.0155 31.3608 22.128 30.3605 22.604 29.1593L23.0014 28.2002L15.4143 10.5604C14.7391 9.03984 15.4143 8.0004 17.0825 8.0004H20.1808C21.4915 8.0004 22.2863 8.59995 22.6837 9.80012L25.1068 17.4801C25.4643 18.601 25.8617 20.6799 25.8617 20.6799H25.9403C25.9403 20.6799 26.3377 18.7205 26.6167 17.5996L28.6822 9.88048C29.0398 8.59996 29.8335 8.0004 31.1452 8.0004H34.0443C35.6339 8.0004 36.349 9.00071 35.7922 10.5202L28.3236 30.8004ZM11.3618 28.8008C8.34201 28.8008 2.74082 27.4008 2.74082 21.2805V13.7601H2.1442C0.753861 13.7601 0 12.9999 0 11.5607V10.5604C0 9.1202 0.753861 8.35992 2.18404 8.35992H2.93898V4.63994C2.93898 3.2008 3.69392 2.44051 5.1241 2.44051H7.42876C8.85786 2.44051 9.6128 3.2008 9.6128 4.63994V8.35992H11.7193C13.1484 8.35992 13.9033 9.1202 13.9033 10.5604V11.5607C13.9033 12.9999 13.1484 13.7601 11.7581 13.7601H9.6128V19.9999C9.6128 21.7605 10.7651 22.4405 11.9972 22.6001C13.5856 22.8 14.1812 23.28 14.1812 24.7996V26.6003C14.1812 28.2404 13.1883 28.8008 11.3618 28.8008Z" fill="#363C44"/>
</svg>
