<svg width="39" height="39" viewBox="0 0 39 39" fill="none" xmlns="http://www.w3.org/2000/svg">
<g clip-path="url(#clip0_481_6727)">
<path d="M21.16 20.1575L18.7134 17.7109L14.1313 22.293L16.5779 24.7396L21.16 20.1575Z" fill="white" stroke="#469CD6" stroke-miterlimit="10"/>
<path d="M26.3498 24.52C32.9828 24.52 38.3598 19.1429 38.3598 12.51C38.3598 5.87706 32.9828 0.5 26.3498 0.5C19.7169 0.5 14.3398 5.87706 14.3398 12.51C14.3398 19.1429 19.7169 24.52 26.3498 24.52Z" fill="#90CEF4" stroke="#469CD6" stroke-miterlimit="10"/>
<path d="M26.3498 20.3304C30.6687 20.3304 34.1698 16.8293 34.1698 12.5104C34.1698 8.19156 30.6687 4.69043 26.3498 4.69043C22.0309 4.69043 18.5298 8.19156 18.5298 12.5104C18.5298 16.8293 22.0309 20.3304 26.3498 20.3304Z" fill="white" stroke="#469CD6" stroke-miterlimit="10"/>
<path d="M18.1155 26.263L12.6143 20.7617L1.4349 31.9411L6.93619 37.4424L18.1155 26.263Z" fill="#90CEF4" stroke="#469CD6" stroke-miterlimit="10"/>
<path d="M10.5924 35.6066L3.24561 28.2598L0.494962 31.0104L7.8418 38.3572L10.5924 35.6066Z" fill="#EBF8FF" stroke="#469CD6" stroke-linecap="round" stroke-linejoin="round"/>
<path d="M19.0241 27.1759L11.6772 19.8291L8.9266 22.5797L16.2734 29.9266L19.0241 27.1759Z" fill="#EBF8FF" stroke="#469CD6" stroke-linecap="round" stroke-linejoin="round"/>
</g>
<defs>
<clipPath id="clip0_481_6727">
<rect width="38.86" height="38.86" fill="white"/>
</clipPath>
</defs>
</svg>
