<svg width="284" height="313" viewBox="0 0 284 313" fill="none" xmlns="http://www.w3.org/2000/svg">
<path d="M239.569 32.6825C212.025 18.9781 178.32 10.917 141.918 10.917C105.516 10.917 71.8111 18.9781 44.2672 32.6826C30.7599 39.4031 24.0062 42.7633 17.4621 53.3288C10.918 63.8942 10.918 74.1242 10.918 94.5843V145.367C10.918 228.093 77.0345 274.087 115.326 293.787C126.004 299.281 131.343 302.028 141.918 302.028C152.492 302.028 157.831 299.281 168.51 293.787C206.801 274.087 272.918 228.093 272.918 145.367L272.918 94.5845C272.918 74.1243 272.918 63.8942 266.374 53.3288C259.83 42.7633 253.076 39.403 239.569 32.6825Z" stroke="#FAB889" stroke-width="21.8333" stroke-linecap="round" stroke-linejoin="round"/>
<path d="M90.9736 192.838C90.9736 164.702 113.782 141.894 141.918 141.894C170.054 141.894 192.863 164.702 192.863 192.838M171.029 112.805C171.029 128.883 157.996 141.917 141.918 141.917C125.84 141.917 112.807 128.883 112.807 112.805C112.807 96.7278 125.84 83.6943 141.918 83.6943C157.996 83.6943 171.029 96.7278 171.029 112.805Z" stroke="#FAB889" stroke-width="21.8333" stroke-linecap="round" stroke-linejoin="round"/>
</svg>
