<svg width="76" height="76" viewBox="0 0 76 76" fill="none" xmlns="http://www.w3.org/2000/svg">
<path d="M1.42619 28.1877C1.98432 26.5264 3.42238 25.3151 5.15376 25.0503L25.3044 21.9711L34.3556 2.68969C35.1274 1.04619 36.7769 0 38.589 0C40.4023 0 42.0506 1.04619 42.8224 2.68969L51.8748 21.9723L72.0254 25.0515C73.7568 25.3163 75.1949 26.5264 75.7518 28.1889C76.3088 29.8514 75.8884 31.6825 74.6641 32.9389L59.9486 48.0284L63.4339 69.3761C63.7213 71.1431 62.9719 72.9196 61.5101 73.9528C60.0495 74.9859 58.121 75.0904 56.5499 74.2235L38.5878 64.2901L20.6257 74.2235C19.9168 74.6154 19.1366 74.8077 18.3599 74.8077C17.4147 74.8077 16.4694 74.5204 15.6655 73.9528C14.2037 72.9208 13.4556 71.1443 13.7429 69.3761L17.2283 48.0284L2.51157 32.9389C1.28963 31.6825 0.869256 29.8514 1.42619 28.1877Z" fill="#FFCF46"/>
</svg>
