<svg width="114" height="31" viewBox="0 0 114 31" fill="none" xmlns="http://www.w3.org/2000/svg">
<g opacity="0.9">
<path d="M31.4481 12.8659V21.9721H29.2552V12.8659H25.73V10.79H34.9733V12.8659H31.4481Z" fill="#212731"/>
<path d="M41.5023 19.7371C41.1137 21.0657 39.8646 22.2005 37.9771 22.2005C35.8397 22.2005 33.98 20.6782 33.98 18.0487C33.98 15.5853 35.812 13.98 37.8105 13.98C40.1977 13.98 41.6411 15.5023 41.6411 17.9934C41.6411 18.2978 41.6133 18.6023 41.6133 18.63H36.0618C36.1173 19.6541 36.9778 20.4014 38.0326 20.4014C39.0041 20.4014 39.5593 19.9032 39.8091 19.2112L41.5023 19.7371ZM39.5593 17.1907C39.5315 16.4157 39.0319 15.6684 37.8105 15.6684C36.728 15.6684 36.1173 16.4987 36.0618 17.1907H39.5593Z" fill="#212731"/>
<path d="M44.7967 17.4952L46.712 17.2184C47.1561 17.163 47.2949 16.9416 47.2949 16.6648C47.2949 16.1112 46.8785 15.6684 45.9903 15.6684C45.0743 15.6684 44.5746 16.2496 44.5191 16.9139L42.6594 16.5264C42.7981 15.3086 43.9085 13.98 45.9903 13.98C48.4607 13.98 49.3767 15.3639 49.3767 16.9139V20.7336C49.3767 21.1487 49.4322 21.7023 49.46 21.9514H47.5447C47.4892 21.7577 47.4614 21.3148 47.4614 21.0103C47.0728 21.6193 46.3234 22.1728 45.1853 22.1728C43.5198 22.1728 42.5206 21.0657 42.5206 19.8478C42.4928 18.4639 43.5198 17.6889 44.7967 17.4952ZM47.2949 18.8237V18.4639L45.5462 18.7407C45.0188 18.8237 44.5746 19.1282 44.5746 19.7094C44.5746 20.1523 44.9077 20.5952 45.5739 20.5952C46.4622 20.6228 47.2949 20.2077 47.2949 18.8237Z" fill="#212731"/>
<path d="M52.6316 18.0764C52.6316 19.488 53.5476 20.263 54.6302 20.263C55.7127 20.263 56.2401 19.5434 56.4067 18.9621L58.2664 19.5711C57.9056 20.8719 56.712 22.1728 54.6302 22.1728C52.3541 22.1728 50.5498 20.4291 50.5498 18.0764C50.5498 15.6961 52.3263 13.98 54.5747 13.98C56.6842 13.98 57.8778 15.2809 58.2109 16.5818L56.3234 17.2184C56.1291 16.5818 55.6572 15.9175 54.6024 15.9175C53.5476 15.9175 52.6316 16.6925 52.6316 18.0764Z" fill="#212731"/>
<path d="M61.5896 21.946H59.48V10.5701H61.5896V14.8602C62.0892 14.2513 62.9497 14.0022 63.6991 14.0022C65.6699 14.0022 66.5859 15.3585 66.5859 17.0745V21.946H64.4763V17.4344C64.4763 16.5763 64.06 15.8844 63.033 15.8844C62.1447 15.8844 61.6173 16.5486 61.5896 17.4067V21.946Z" fill="#212731"/>
<path d="M69.4247 10.3799C70.1464 10.3799 70.7293 10.9611 70.7293 11.6808C70.7293 12.3727 70.1742 12.954 69.4247 12.954C68.703 12.954 68.1201 12.3727 68.1201 11.6808C68.1479 10.9611 68.7308 10.3799 69.4247 10.3799ZM68.3977 21.9495V14.1995H70.5073V21.9495H68.3977Z" fill="#212731"/>
<path d="M74.5295 21.9538H72.4199V14.2038H74.4462V15.1725C74.9181 14.3698 75.8619 14.01 76.6946 14.01C78.6099 14.01 79.4981 15.3663 79.4981 17.0823V21.9538H77.3885V17.4422C77.3885 16.5841 76.9722 15.8922 75.9451 15.8922C75.0291 15.8922 74.5017 16.6118 74.5017 17.4975V21.9538H74.5295Z" fill="#212731"/>
<path d="M82.6575 21.8678C82.7963 22.7258 83.4903 23.3347 84.4618 23.3347C85.7941 23.3347 86.5436 22.6704 86.5436 21.1758V20.6222C86.2383 21.1204 85.4888 21.6187 84.3785 21.6187C82.2967 21.6187 80.77 20.041 80.77 17.8544C80.77 15.8062 82.2412 14.0901 84.3785 14.0901C85.5998 14.0901 86.3215 14.616 86.5991 15.1419V14.2285H88.6254V21.1481C88.6254 23.2794 87.4596 25.2169 84.5451 25.2169C82.4077 25.2169 80.9921 23.8883 80.77 22.4213L82.6575 21.8678ZM86.5714 17.8544C86.5714 16.6642 85.7386 15.8892 84.7394 15.8892C83.6846 15.8892 82.8796 16.6365 82.8796 17.8544C82.8796 19.0722 83.6568 19.8195 84.7394 19.8195C85.8219 19.8195 86.5714 19.0445 86.5714 17.8544Z" fill="#212731"/>
<path fill-rule="evenodd" clip-rule="evenodd" d="M91.0064 16.5314V16.5773C91.0001 18.9108 90.9937 21.3073 91.0123 23.6664C99.1456 23.7494 113.996 23.9155 113.996 23.9155L113.857 13.1208C113.865 13.1284 112.702 13.1257 110.862 13.1213L110.707 13.1208C105.741 13.1083 96.1304 13.0844 91.0123 13.204C91.0123 14.2614 91.0093 15.3432 91.0064 16.4396V16.4855V16.5314ZM93.9839 19.4316C94.4004 19.4316 94.7335 19.7636 94.7335 20.1789C94.7335 20.5942 94.4004 20.9262 93.9839 20.9262C93.5674 20.9262 93.2344 20.5942 93.2344 20.1789C93.2344 19.7636 93.5674 19.4316 93.9839 19.4316ZM97.3428 19.9853C96.7877 19.9853 96.316 19.57 96.316 18.8505C96.316 18.1308 96.7877 17.7155 97.315 17.7155C97.8428 17.7155 98.0924 18.0754 98.2037 18.4077L99.1749 18.0754C99.0084 17.4111 98.3975 16.7192 97.2877 16.7192C96.1216 16.7192 95.2056 17.6049 95.2056 18.8505C95.2056 20.0683 96.1495 20.9816 97.3428 20.9816C98.4254 20.9816 99.064 20.2897 99.2305 19.6254L98.2589 19.2934C98.1758 19.6254 97.898 19.9853 97.3428 19.9853ZM103.783 18.8505C103.783 20.0959 102.867 20.9816 101.673 20.9816C100.48 20.9816 99.5635 20.0683 99.5635 18.8505C99.5635 17.6049 100.48 16.7192 101.673 16.7192C102.867 16.7192 103.783 17.6049 103.783 18.8505ZM102.672 18.8505C102.672 18.1032 102.173 17.7155 101.646 17.7155C101.118 17.7155 100.618 18.1032 100.618 18.8505C100.618 19.5978 101.118 19.9853 101.646 19.9853C102.173 19.9853 102.672 19.5978 102.672 18.8505ZM104.477 16.8298V20.871V20.8986H105.587V18.5461C105.587 18.1032 105.864 17.7433 106.337 17.7433C106.836 17.7433 107.058 18.0478 107.058 18.4907V20.871H108.141V18.5182C108.141 18.0754 108.418 17.7155 108.89 17.7155C109.39 17.7155 109.612 18.02 109.612 18.4628V20.8432H110.667V18.2414C110.667 17.162 109.945 16.7192 109.195 16.7192C108.668 16.7192 108.252 16.8852 107.919 17.3835C107.724 16.9682 107.28 16.7192 106.725 16.7192C106.281 16.7192 105.753 16.9406 105.531 17.3281V16.8298H104.477Z" fill="#212731"/>
<path d="M11.0198 0C4.94086 0 0 4.92679 0 10.9884C0 14.9464 2.13734 18.5723 5.57928 20.5375V26.9036L10.992 31L16.4048 26.9036V20.5375C19.8467 18.6 21.984 14.9464 21.984 10.9884C22.0118 4.92679 17.0709 0 11.0198 0ZM15.4055 23.333H7.88316V24.3571H15.4055V25.2429H7.88316V26.267H15.4055V26.4054L10.992 29.7268L6.57856 26.4054V22.4473H15.3777V23.333H15.4055ZM15.6831 19.7902L15.4055 19.9286V21.4232H12.3799V11.6804C12.3799 11.6804 12.3799 11.2375 12.4077 10.7393C14.545 10.9054 16.1827 10.4348 16.9321 9.77054C17.4595 9.3 17.3763 8.82946 17.293 8.66339C17.0709 8.10982 16.3492 7.83304 15.0724 7.83304C13.7955 7.83304 12.7963 8.22054 12.1578 8.96786C11.9635 9.18929 11.8247 9.41071 11.7137 9.65982C10.4646 9.46607 9.04898 9.05089 7.57783 8.27589C7.55007 8.27589 7.55007 8.24821 7.52232 8.24821C7.4668 7.72232 6.99492 7.30714 6.46753 7.30714C5.88462 7.30714 5.38498 7.77768 5.38498 8.38661C5.38498 8.96786 5.85686 9.46607 6.46753 9.46607C6.7451 9.46607 6.96716 9.35536 7.16147 9.21696C8.66038 9.99196 10.1038 10.4348 11.4084 10.6562C11.3529 11.4312 11.3529 12.5107 11.3529 12.5107V21.4509H10.77V11.5696C10.77 11.2929 10.5479 11.0714 10.2703 11.0714C9.99274 11.0714 9.77068 11.2929 9.77068 11.5696V21.4232H6.60631V19.9286L6.32874 19.7902C3.05334 18.0464 1.02703 14.6696 1.02703 10.9884C1.02703 5.50804 5.49601 1.02411 11.0198 1.02411C16.5158 1.02411 21.0125 5.48036 21.0125 10.9884C21.0125 14.6696 18.9585 18.0464 15.6831 19.7902ZM12.824 9.74286C12.8518 9.6875 12.9073 9.65982 12.9351 9.60446C13.3792 9.07857 14.1009 8.82946 15.1001 8.82946C15.8218 8.82946 16.1549 8.94018 16.2937 8.99554C16.1827 9.10625 15.9606 9.24464 15.5165 9.41071C14.8503 9.65982 13.9343 9.79821 12.824 9.74286ZM6.88389 8.33125C6.88389 8.58036 6.68959 8.74643 6.46753 8.74643C6.21771 8.74643 6.05116 8.55268 6.05116 8.33125C6.05116 8.08214 6.24546 7.91607 6.46753 7.91607C6.68959 7.91607 6.88389 8.10982 6.88389 8.33125Z" fill="#212731"/>
</g>
</svg>
