<svg width="167" height="45" viewBox="0 0 167 45" fill="none" xmlns="http://www.w3.org/2000/svg">
<path d="M132.745 19.027C132.745 23.8695 132.688 29.0558 132.745 34.1321C144.596 34.2559 166.275 34.5105 166.275 34.5105L166.093 18.9514C166.093 18.9514 143.117 18.7932 132.752 19.0339" fill="#FFDD22"/>
<path d="M45.8712 18.5437V31.6678H42.6694V18.5437H37.5146V15.5723H51.0258V18.5437H45.8712Z" fill="white"/>
<path d="M60.5313 28.4615C59.9593 30.3943 58.1597 32.0039 55.3765 32.0039C52.2655 32.0039 49.5312 29.8027 49.5312 26.0334C49.5312 22.4703 52.2028 20.1523 55.1045 20.1523C58.606 20.1523 60.6987 22.3534 60.6987 25.9439C60.6987 26.3773 60.6499 26.8313 60.6499 26.8726H52.5445C52.6143 28.3514 53.8768 29.4176 55.3974 29.4176C56.8274 29.4176 57.6086 28.7159 57.9783 27.7186L60.5313 28.4683V28.4615ZM57.6783 24.809C57.6296 23.6947 56.8971 22.6079 55.1463 22.6079C53.556 22.6079 52.6841 23.791 52.6143 24.809H57.6783Z" fill="white"/>
<path d="M65.3441 25.2433L68.1273 24.8376C68.7691 24.7481 68.9783 24.4317 68.9783 24.0396C68.9783 23.2417 68.3575 22.5882 67.067 22.5882C65.7767 22.5882 64.9953 23.4274 64.9047 24.4042L62.1913 23.8402C62.3727 22.093 64.0119 20.1602 67.0461 20.1602C70.6384 20.1602 71.9707 22.1549 71.9707 24.4042V29.9001C71.9707 30.4916 72.0404 31.2826 72.1102 31.6678H69.2991C69.2294 31.372 69.1875 30.7599 69.1875 30.3265C68.6156 31.2139 67.5274 31.9842 65.8464 31.9842C63.4259 31.9842 61.9541 30.3747 61.9541 28.6275C61.9541 26.6328 63.4538 25.5185 65.3372 25.2433H65.3441ZM68.9783 27.1487V26.6466L66.4253 27.0318C65.6441 27.1487 65.0233 27.5752 65.0233 28.4419C65.0233 29.1021 65.5046 29.735 66.495 29.735C67.7855 29.735 68.9783 29.1228 68.9783 27.1487Z" fill="white"/>
<path d="M76.7722 26.0835C76.7722 28.1057 78.1045 29.2406 79.6739 29.2406C81.2433 29.2406 82.0245 28.2227 82.2757 27.356L84.9682 28.2433C84.4589 30.1073 82.6872 32.0126 79.6739 32.0126C76.3327 32.0126 73.71 29.5158 73.71 26.0904C73.71 22.6649 76.2909 20.168 79.5832 20.168C82.6663 20.168 84.4171 22.0527 84.8984 23.9373L82.1571 24.8453C81.8781 23.9168 81.1666 22.9606 79.646 22.9606C78.1254 22.9606 76.7722 24.0749 76.7722 26.0904V26.0835Z" fill="white"/>
<path d="M89.823 31.6689H86.7607V15.2363H89.823V21.4338C90.5623 20.574 91.8039 20.2094 92.8851 20.2094C95.7589 20.2094 97.0983 22.1836 97.0983 24.6391V31.6758H94.036V25.1619C94.036 23.91 93.4152 22.9333 91.9434 22.9333C90.653 22.9333 89.8927 23.8894 89.823 25.1137V31.6758V31.6689Z" fill="white"/>
<path d="M101.269 14.9609C102.33 14.9609 103.16 15.8001 103.16 16.8456C103.16 17.8911 102.33 18.6822 101.269 18.6822C100.209 18.6822 99.3789 17.8429 99.3789 16.8456C99.3789 15.8482 100.23 14.9609 101.269 14.9609ZM99.7488 31.6687V20.498H102.811V31.6687H99.7488Z" fill="white"/>
<path d="M108.677 31.6694H105.615V20.4989H108.586V21.8814C109.277 20.7258 110.637 20.2031 111.857 20.2031C114.669 20.2031 115.952 22.1772 115.952 24.6328V31.6694H112.89V25.1555C112.89 23.9037 112.269 22.927 110.797 22.927C109.465 22.927 108.677 23.9518 108.677 25.2449V31.6694Z" fill="white"/>
<path d="M120.561 31.5511C120.771 32.7755 121.761 33.6627 123.205 33.6627C125.137 33.6627 126.219 32.7066 126.219 30.5537V29.7352C125.758 30.4643 124.697 31.1659 123.065 31.1659C120.052 31.1659 117.792 28.8753 117.792 25.7388C117.792 22.7879 119.954 20.291 123.065 20.291C124.858 20.291 125.897 21.0614 126.288 21.8112V20.4973H129.231V30.4643C129.231 33.532 127.551 36.3178 123.295 36.3178C120.184 36.3178 118.113 34.4125 117.792 32.2802L120.554 31.5511H120.561ZM126.267 25.7388C126.267 24.0122 125.067 22.9254 123.595 22.9254C122.123 22.9254 120.882 24.0122 120.882 25.7388C120.882 27.4653 122.013 28.5726 123.595 28.5726C125.179 28.5726 126.267 27.4584 126.267 25.7388Z" fill="white"/>
<path d="M137.08 28.0234C137.686 28.0234 138.182 28.5049 138.182 29.0964C138.182 29.688 137.693 30.1695 137.08 30.1695C136.466 30.1695 135.991 29.688 135.991 29.0964C135.991 28.5049 136.48 28.0234 137.08 28.0234Z" fill="#222222"/>
<path d="M140.489 27.184C140.489 28.2364 141.179 28.8212 141.996 28.8212C142.811 28.8212 143.216 28.2915 143.348 27.8444L144.751 28.3053C144.486 29.2751 143.565 30.2656 142.003 30.2656C140.266 30.2656 138.905 28.9655 138.905 27.1909C138.905 25.4163 140.245 24.1094 141.954 24.1094C143.558 24.1094 144.465 25.0862 144.716 26.0697L143.293 26.5444C143.146 26.0629 142.776 25.5677 141.989 25.5677C141.201 25.5677 140.496 26.1454 140.496 27.1978L140.489 27.184Z" fill="#222222"/>
<path d="M151.352 27.1831C151.352 28.9646 150.027 30.2579 148.269 30.2579C146.511 30.2579 145.186 28.9578 145.186 27.1831C145.186 25.4085 146.511 24.1016 148.269 24.1016C150.027 24.1016 151.352 25.3879 151.352 27.1831ZM149.762 27.1831C149.762 26.0895 149.043 25.5323 148.269 25.5323C147.494 25.5323 146.776 26.0895 146.776 27.1831C146.776 28.2768 147.494 28.8339 148.269 28.8339C149.043 28.8339 149.762 28.2768 149.762 27.1831Z" fill="#222222"/>
<path d="M152.361 30.0877V24.2823H153.882V24.9908C154.203 24.4267 154.957 24.1172 155.605 24.1172C156.407 24.1172 157.049 24.4612 157.349 25.0871C157.816 24.3786 158.437 24.1172 159.218 24.1172C160.306 24.1172 161.346 24.7638 161.346 26.3253V30.0877H159.804V26.6416C159.804 26.0157 159.491 25.5479 158.765 25.5479C158.081 25.5479 157.677 26.0639 157.677 26.6898V30.0877H156.1V26.6416C156.1 26.0157 155.78 25.5479 155.061 25.5479C154.343 25.5479 153.959 26.057 153.959 26.6898V30.0877H152.369H152.361Z" fill="#222222"/>
<path d="M132.745 19.027C132.745 23.8695 132.688 29.0558 132.745 34.1321C144.596 34.2559 166.275 34.5105 166.275 34.5105L166.093 18.9514C166.093 18.9514 143.117 18.7932 132.752 19.0339" fill="#FEDC3D"/>
<path d="M137.08 28.0234C137.686 28.0234 138.182 28.5049 138.182 29.0964C138.182 29.688 137.693 30.1695 137.08 30.1695C136.466 30.1695 135.991 29.688 135.991 29.0964C135.991 28.5049 136.48 28.0234 137.08 28.0234Z" fill="#5B5A5E"/>
<path d="M140.489 27.184C140.489 28.2364 141.179 28.8212 141.996 28.8212C142.811 28.8212 143.216 28.2915 143.348 27.8444L144.751 28.3053C144.486 29.2751 143.565 30.2656 142.003 30.2656C140.266 30.2656 138.905 28.9655 138.905 27.1909C138.905 25.4163 140.245 24.1094 141.954 24.1094C143.558 24.1094 144.465 25.0862 144.716 26.0697L143.293 26.5444C143.146 26.0629 142.776 25.5677 141.989 25.5677C141.201 25.5677 140.496 26.1454 140.496 27.1978L140.489 27.184Z" fill="#5B5A5E"/>
<path d="M151.352 27.1831C151.352 28.9646 150.027 30.2579 148.269 30.2579C146.511 30.2579 145.186 28.9578 145.186 27.1831C145.186 25.4085 146.511 24.1016 148.269 24.1016C150.027 24.1016 151.352 25.3879 151.352 27.1831ZM149.762 27.1831C149.762 26.0895 149.043 25.5323 148.269 25.5323C147.494 25.5323 146.776 26.0895 146.776 27.1831C146.776 28.2768 147.494 28.8339 148.269 28.8339C149.043 28.8339 149.762 28.2768 149.762 27.1831Z" fill="#5B5A5E"/>
<path d="M152.361 30.0877V24.2823H153.882V24.9908C154.203 24.4267 154.957 24.1172 155.605 24.1172C156.407 24.1172 157.049 24.4612 157.349 25.0871C157.816 24.3786 158.437 24.1172 159.218 24.1172C160.306 24.1172 161.346 24.7638 161.346 26.3253V30.0877H159.804V26.6416C159.804 26.0157 159.491 25.5479 158.765 25.5479C158.081 25.5479 157.677 26.0639 157.677 26.6898V30.0877H156.1V26.6416C156.1 26.0157 155.78 25.5479 155.061 25.5479C154.343 25.5479 153.959 26.057 153.959 26.6898V30.0877H152.369H152.361Z" fill="#5B5A5E"/>
<path d="M16.0502 0C7.19853 0 0 7.09856 0 15.8273C0 21.557 3.11099 26.7916 8.15413 29.6048V38.7669L16.0571 44.6824L23.9602 38.7669V29.6048C28.9963 26.7916 32.1143 21.5501 32.1143 15.8273C32.1074 7.09856 24.9088 0 16.0502 0ZM22.4744 33.6494H11.4953V35.1076H22.4744V36.3938H11.4953V37.8521H22.4744V38.0446L16.0502 42.8458L9.6329 38.0446V32.363H22.4744V33.6494ZM22.8651 28.5318L22.4744 28.7382V30.9049H18.073V16.8659C18.073 16.8659 18.0451 16.2193 18.1218 15.504C21.2259 15.7378 23.6184 15.0431 24.7066 14.0939C25.4948 13.3992 25.3483 12.732 25.2506 12.4775C24.9437 11.6727 23.8556 11.2669 22.0281 11.2669C20.2005 11.2669 18.7148 11.8172 17.7591 12.8971C17.4801 13.2135 17.2639 13.5574 17.0965 13.9014C15.2689 13.64 13.2043 13.0278 11.0489 11.9203C11.021 11.9066 10.9931 11.8997 10.9652 11.8859C10.8675 11.1225 10.2119 10.5309 9.41667 10.5309C8.55173 10.5309 7.84722 11.2256 7.84722 12.0786C7.84722 12.9315 8.55173 13.6262 9.41667 13.6262C9.80727 13.6262 10.156 13.4817 10.4281 13.2479C12.6183 14.3691 14.7318 15.0156 16.6431 15.3252C16.5524 16.4326 16.5803 18.0147 16.5803 18.0147V30.898H15.7502V16.6665C15.7502 16.2606 15.4155 15.9374 15.0109 15.9374C14.6063 15.9374 14.2715 16.2675 14.2715 16.6665V30.898H9.62593V28.7313L9.23531 28.5249C4.45025 26.0211 1.47877 21.1581 1.47877 15.8273C1.47877 7.91022 8.02161 1.45823 16.0502 1.45823C24.0788 1.45823 30.6216 7.90333 30.6216 15.8273C30.6216 21.1581 27.6501 26.028 22.8651 28.5249V28.5318ZM18.7218 14.0595C18.7706 13.9908 18.8263 13.9219 18.8822 13.8601C19.5448 13.1172 20.5981 12.7388 22.0281 12.7388C23.0604 12.7388 23.5486 12.8833 23.7579 12.9796C23.6045 13.1241 23.2766 13.351 22.6419 13.578C21.6723 13.9219 20.319 14.1352 18.7148 14.0664L18.7218 14.0595ZM10.0515 12.0304C10.0515 12.3674 9.77241 12.6426 9.43061 12.6426C9.08883 12.6426 8.80981 12.3674 8.80981 12.0304C8.80981 11.6934 9.08883 11.4182 9.43061 11.4182C9.77241 11.4182 10.0515 11.6934 10.0515 12.0304Z" fill="#FEDC3D"/>
</svg>
