<svg width="103" height="103" viewBox="0 0 103 103" fill="none" xmlns="http://www.w3.org/2000/svg">
<path d="M51.5 0.580078C62.8003 0.580078 71.532 0.58221 78.4629 1.60059C85.3739 2.61609 90.4224 4.63354 94.3936 8.61719L94.3945 8.61816C98.3726 12.5958 100.387 17.6441 101.401 24.5527C102.418 31.4811 102.42 40.2081 102.42 51.5068C102.42 62.8056 102.418 71.5326 101.401 78.4609C100.387 85.3696 98.3726 90.4179 94.3945 94.3955C90.4168 98.3727 85.3684 100.387 78.46 101.401C71.5538 102.415 62.8603 102.419 51.6143 102.419C51.5749 102.411 51.5344 102.406 51.4932 102.406C40.1951 102.406 31.4682 102.405 24.54 101.388C17.6316 100.374 12.5832 98.359 8.60547 94.3818C4.62741 90.4042 2.61259 85.3559 1.59863 78.4473C0.581798 71.5189 0.580078 62.7919 0.580078 51.4932C0.580078 40.1944 0.581791 31.4674 1.59863 24.5391C2.6126 17.6304 4.62736 12.5821 8.60547 8.60449C12.5835 4.62693 17.6325 2.61249 24.542 1.59863C31.4712 0.581918 40.1997 0.580078 51.5 0.580078Z" fill="#48A1DF" stroke="#2F8ED0" stroke-width="1.16095"/>
<path fill-rule="evenodd" clip-rule="evenodd" d="M60.8734 79.9617C54.283 79.9617 42.0492 77.0113 42.0299 64.0219V48.0438H40.6964C37.6621 48.0438 36.0193 46.4345 36 43.3883V41.2617C36 38.1964 37.6234 36.5871 40.7543 36.5871H42.3971V28.6747C42.3971 25.6093 44.0399 24 47.1515 24H52.1764C55.288 24 56.9501 25.5901 56.9501 28.6555V36.5679H61.5692C64.6807 36.5679 66.3428 38.1772 66.3428 41.2426V43.3691C66.3428 46.4345 64.7001 48.0438 61.6658 48.0438H56.9887L57.0081 61.3014C57.0081 65.0373 59.5399 66.4742 62.2263 66.819C65.6858 67.2405 67 68.2559 67 71.4745V75.3062C67 78.793 64.8547 79.9808 60.8541 80L60.8734 79.9617Z" fill="white"/>
</svg>
