<svg width="429" height="195" viewBox="0 0 429 195" fill="none" xmlns="http://www.w3.org/2000/svg">
<rect x="22" y="19.4395" width="306.24" height="92.4" rx="12" fill="#3082CF"/>
<path d="M327.74 75.3799V99.8398C327.74 106.191 322.591 111.34 316.24 111.34H34C27.6487 111.34 22.5 106.191 22.5 99.8398V75.3799H327.74Z" fill="white" stroke="#3082CF"/>
<path d="M88.9825 93.6384C88.9825 92.7794 89.1256 91.9919 89.412 91.2761C89.7093 90.5492 90.1168 89.9214 90.6345 89.3928C91.1521 88.8641 91.7633 88.4511 92.4682 88.1538C93.184 87.8564 93.966 87.7077 94.814 87.7077C95.5189 87.7077 96.2182 87.8234 96.9121 88.0547C97.6169 88.2749 98.2171 88.5723 98.7127 88.9467C98.8889 89.1119 98.911 89.3047 98.7788 89.5249L98.6301 89.7397C98.4759 89.9489 98.2887 89.971 98.0685 89.8058C97.6059 89.4864 97.0883 89.2386 96.5156 89.0624C95.9539 88.8751 95.3977 88.7815 94.8471 88.7815C94.1642 88.7815 93.5365 88.9027 92.9638 89.145C92.3911 89.3763 91.8955 89.7067 91.477 90.1362C91.0695 90.5657 90.7501 91.0778 90.5188 91.6725C90.2875 92.2673 90.1719 92.917 90.1719 93.6219C90.1719 94.3488 90.2875 95.0206 90.5188 95.6373C90.7611 96.2541 91.0915 96.7882 91.51 97.2398C91.9285 97.6803 92.4241 98.0272 92.9968 98.2805C93.5805 98.5228 94.2138 98.644 94.8966 98.644C95.4913 98.644 96.0916 98.5338 96.6973 98.3136C97.303 98.0933 97.8537 97.7849 98.3493 97.3885C98.5585 97.2233 98.7458 97.2398 98.911 97.438L99.0597 97.6197C99.2138 97.829 99.2028 98.0217 99.0266 98.1979C98.4649 98.6715 97.8096 99.046 97.0607 99.3213C96.3228 99.5856 95.5905 99.7178 94.8636 99.7178C94.0045 99.7178 93.2171 99.5691 92.5012 99.2717C91.7853 98.9634 91.1631 98.5393 90.6345 97.9997C90.1168 97.46 89.7093 96.8213 89.412 96.0834C89.1256 95.3345 88.9825 94.5195 88.9825 93.6384ZM106.609 88.319C106.609 88.0436 106.741 87.906 107.005 87.906H112.738C113.013 87.906 113.151 88.0436 113.151 88.319V88.5172C113.151 88.7925 113.013 88.9302 112.738 88.9302H107.749V93.1593H111.746C112.022 93.1593 112.159 93.2915 112.159 93.5558V93.7706C112.159 94.0459 112.022 94.1836 111.746 94.1836H107.749V98.4953H113.035C113.31 98.4953 113.448 98.633 113.448 98.9083V99.1065C113.448 99.3819 113.31 99.5195 113.035 99.5195H107.005C106.741 99.5195 106.609 99.3819 106.609 99.1065V88.319ZM120.861 88.319C120.861 88.0436 120.993 87.906 121.257 87.906H124.396C124.892 87.906 125.305 87.9335 125.635 87.9886C125.966 88.0326 126.258 88.1152 126.511 88.2364C127.062 88.5007 127.486 88.8862 127.783 89.3928C128.08 89.8994 128.229 90.4831 128.229 91.1439C128.229 91.9369 128.025 92.6252 127.618 93.2089C127.221 93.7816 126.693 94.1615 126.032 94.3488V94.3818C126.054 94.4149 126.087 94.4754 126.131 94.5635C126.186 94.6406 126.252 94.7342 126.329 94.8444L128.592 99.0405C128.669 99.1946 128.68 99.3158 128.625 99.4039C128.57 99.481 128.466 99.5195 128.312 99.5195H127.882C127.651 99.5195 127.491 99.4259 127.403 99.2387L124.925 94.6296H122.001V99.1065C122.001 99.3819 121.869 99.5195 121.604 99.5195H121.257C120.993 99.5195 120.861 99.3819 120.861 99.1065V88.319ZM124.76 93.6054C125.454 93.6054 126.01 93.3851 126.428 92.9446C126.847 92.504 127.056 91.9148 127.056 91.1769C127.056 90.7144 126.946 90.3069 126.726 89.9545C126.516 89.591 126.219 89.3212 125.834 89.145C125.646 89.0679 125.443 89.0128 125.222 88.9798C125.002 88.9467 124.699 88.9302 124.314 88.9302H122.001V93.6054H124.76ZM138.305 88.9302H134.555C134.28 88.9302 134.142 88.7925 134.142 88.5172V88.319C134.142 88.0436 134.28 87.906 134.555 87.906H143.212C143.487 87.906 143.625 88.0436 143.625 88.319V88.5172C143.625 88.7925 143.487 88.9302 143.212 88.9302H139.445V99.1065C139.445 99.3819 139.313 99.5195 139.049 99.5195H138.718C138.443 99.5195 138.305 99.3819 138.305 99.1065V88.9302ZM150.463 88.319C150.463 88.0436 150.595 87.906 150.859 87.906H151.206C151.471 87.906 151.603 88.0436 151.603 88.319V99.1065C151.603 99.3819 151.471 99.5195 151.206 99.5195H150.859C150.595 99.5195 150.463 99.3819 150.463 99.1065V88.319ZM159.956 88.319C159.956 88.0436 160.088 87.906 160.352 87.906H165.655C165.931 87.906 166.068 88.0436 166.068 88.319V88.5172C166.068 88.7925 165.931 88.9302 165.655 88.9302H161.096V93.2915H164.962C165.226 93.2915 165.358 93.4237 165.358 93.688V93.9027C165.358 94.1781 165.226 94.3157 164.962 94.3157H161.096V99.1065C161.096 99.3819 160.964 99.5195 160.699 99.5195H160.352C160.088 99.5195 159.956 99.3819 159.956 99.1065V88.319ZM173.305 88.319C173.305 88.0436 173.437 87.906 173.701 87.906H174.048C174.313 87.906 174.445 88.0436 174.445 88.319V99.1065C174.445 99.3819 174.313 99.5195 174.048 99.5195H173.701C173.437 99.5195 173.305 99.3819 173.305 99.1065V88.319ZM182.022 93.6384C182.022 92.7794 182.165 91.9919 182.451 91.2761C182.749 90.5492 183.156 89.9214 183.674 89.3928C184.191 88.8641 184.803 88.4511 185.507 88.1538C186.223 87.8564 187.005 87.7077 187.853 87.7077C188.558 87.7077 189.257 87.8234 189.951 88.0547C190.656 88.2749 191.256 88.5723 191.752 88.9467C191.928 89.1119 191.95 89.3047 191.818 89.5249L191.669 89.7397C191.515 89.9489 191.328 89.971 191.108 89.8058C190.645 89.4864 190.127 89.2386 189.555 89.0624C188.993 88.8751 188.437 88.7815 187.886 88.7815C187.203 88.7815 186.576 88.9027 186.003 89.145C185.43 89.3763 184.935 89.7067 184.516 90.1362C184.109 90.5657 183.789 91.0778 183.558 91.6725C183.327 92.2673 183.211 92.917 183.211 93.6219C183.211 94.3488 183.327 95.0206 183.558 95.6373C183.8 96.2541 184.131 96.7882 184.549 97.2398C184.968 97.6803 185.463 98.0272 186.036 98.2805C186.62 98.5228 187.253 98.644 187.936 98.644C188.531 98.644 189.131 98.5338 189.737 98.3136C190.342 98.0933 190.893 97.7849 191.389 97.3885C191.598 97.2233 191.785 97.2398 191.95 97.438L192.099 97.6197C192.253 97.829 192.242 98.0217 192.066 98.1979C191.504 98.6715 190.849 99.046 190.1 99.3213C189.362 99.5856 188.63 99.7178 187.903 99.7178C187.044 99.7178 186.256 99.5691 185.54 99.2717C184.825 98.9634 184.202 98.5393 183.674 97.9997C183.156 97.46 182.749 96.8213 182.451 96.0834C182.165 95.3345 182.022 94.5195 182.022 93.6384ZM202.341 88.2364C202.396 88.0161 202.544 87.906 202.787 87.906H203.332C203.563 87.906 203.712 88.0161 203.778 88.2364L207.776 99.0405C207.864 99.3598 207.754 99.5195 207.445 99.5195H207.082C206.818 99.5195 206.663 99.4094 206.619 99.1891L205.38 95.8191H200.722L199.499 99.1891C199.433 99.4094 199.279 99.5195 199.037 99.5195H198.69C198.359 99.5195 198.244 99.3598 198.343 99.0405L202.341 88.2364ZM205.05 94.8279L203.514 90.6153C203.436 90.417 203.359 90.1692 203.282 89.8719C203.205 89.5745 203.139 89.3157 203.084 89.0954H203.051C202.996 89.3157 202.924 89.5745 202.836 89.8719C202.748 90.1692 202.671 90.417 202.605 90.6153L201.052 94.8279H205.05ZM216.414 88.9302H212.664C212.389 88.9302 212.251 88.7925 212.251 88.5172V88.319C212.251 88.0436 212.389 87.906 212.664 87.906H221.321C221.596 87.906 221.734 88.0436 221.734 88.319V88.5172C221.734 88.7925 221.596 88.9302 221.321 88.9302H217.554V99.1065C217.554 99.3819 217.422 99.5195 217.158 99.5195H216.827C216.552 99.5195 216.414 99.3819 216.414 99.1065V88.9302ZM228.572 88.319C228.572 88.0436 228.704 87.906 228.969 87.906H229.315C229.58 87.906 229.712 88.0436 229.712 88.319V99.1065C229.712 99.3819 229.58 99.5195 229.315 99.5195H228.969C228.704 99.5195 228.572 99.3819 228.572 99.1065V88.319ZM237.272 93.6384C237.272 92.8014 237.421 92.025 237.718 91.3091C238.016 90.5822 238.429 89.9545 238.957 89.4258C239.486 88.8862 240.108 88.4677 240.824 88.1703C241.551 87.8619 242.338 87.7077 243.186 87.7077C244.023 87.7077 244.8 87.8619 245.516 88.1703C246.243 88.4677 246.87 88.8807 247.399 89.4093C247.928 89.9379 248.341 90.5657 248.638 91.2926C248.946 92.0195 249.101 92.8014 249.101 93.6384C249.101 94.4975 248.946 95.3014 248.638 96.0503C248.341 96.7882 247.928 97.4325 247.399 97.9832C246.87 98.5228 246.243 98.9468 245.516 99.2552C244.8 99.5636 244.023 99.7178 243.186 99.7178C242.349 99.7178 241.568 99.5636 240.841 99.2552C240.125 98.9468 239.503 98.5228 238.974 97.9832C238.445 97.4325 238.027 96.7882 237.718 96.0503C237.421 95.3014 237.272 94.4975 237.272 93.6384ZM238.462 93.6384C238.462 94.3543 238.583 95.0206 238.825 95.6373C239.067 96.2431 239.398 96.7717 239.816 97.2233C240.235 97.6638 240.731 98.0107 241.303 98.264C241.887 98.5173 242.515 98.644 243.186 98.644C243.858 98.644 244.481 98.5173 245.053 98.264C245.637 98.0107 246.138 97.6638 246.557 97.2233C246.975 96.7717 247.305 96.2431 247.548 95.6373C247.79 95.0206 247.911 94.3543 247.911 93.6384C247.911 92.9446 247.79 92.3003 247.548 91.7056C247.305 91.1109 246.975 90.5987 246.557 90.1692C246.138 89.7397 245.637 89.4038 245.053 89.1615C244.481 88.9082 243.858 88.7815 243.186 88.7815C242.504 88.7815 241.876 88.9082 241.303 89.1615C240.731 89.4038 240.229 89.7452 239.8 90.1857C239.381 90.6153 239.051 91.1274 238.809 91.7221C238.577 92.3058 238.462 92.9446 238.462 93.6384ZM256.69 88.319C256.69 88.0436 256.822 87.906 257.086 87.906H257.483C257.67 87.906 257.835 87.9941 257.978 88.1703L263.727 96.2651C263.87 96.4854 264.036 96.7497 264.223 97.0581C264.41 97.3664 264.564 97.6252 264.685 97.8345H264.718C264.696 97.6363 264.674 97.3829 264.652 97.0746C264.63 96.7662 264.619 96.4964 264.619 96.2651V88.319C264.619 88.0436 264.757 87.906 265.032 87.906H265.363C265.627 87.906 265.759 88.0436 265.759 88.319V99.1065C265.759 99.3819 265.627 99.5195 265.363 99.5195H264.966C264.746 99.5195 264.586 99.4314 264.487 99.2552L258.722 91.1604C258.567 90.9512 258.397 90.6923 258.209 90.384C258.033 90.0756 257.885 89.8113 257.763 89.591H257.73C257.752 89.8003 257.774 90.0591 257.796 90.3675C257.819 90.6758 257.83 90.9401 257.83 91.1604V99.1065C257.83 99.3819 257.697 99.5195 257.433 99.5195H257.086C256.822 99.5195 256.69 99.3819 256.69 99.1065V88.319Z" fill="black" fill-opacity="0.5"/>
<path d="M87.6092 59.3228L83.5764 42.6976C83.3294 41.6551 83.8233 41.0241 84.8932 41.0241H86.841C87.7464 41.0241 88.2951 41.463 88.4871 42.3684L90.6818 53.2872C90.9288 54.4944 90.9288 55.3448 90.9288 55.3448H90.9836C90.9836 55.3448 91.0111 54.4944 91.3128 53.2872L94.0014 42.3409C94.2209 41.463 94.7696 41.0241 95.6749 41.0241H96.8546C97.7599 41.0241 98.3086 41.463 98.5006 42.3409L101.134 53.2872C101.436 54.4944 101.464 55.3448 101.464 55.3448H101.518C101.518 55.3448 101.518 54.4944 101.765 53.2872L104.152 42.3409C104.344 41.463 104.893 41.0241 105.826 41.0241H107.691C108.761 41.0241 109.255 41.6551 109.008 42.6976L104.783 59.3502C104.564 60.2281 104.015 60.6396 103.11 60.6396H100.448C99.5431 60.6396 98.9945 60.2007 98.775 59.3228L96.6351 50.7358C96.3333 49.4739 96.251 48.4314 96.251 48.4314H96.1962C96.1962 48.4314 96.1138 49.4739 95.8121 50.7358L93.6722 59.3228C93.4527 60.2007 92.904 60.6396 91.9987 60.6396H89.2827C88.3774 60.6396 87.8287 60.2007 87.6092 59.3228ZM111.936 50.7907C111.936 45.0844 116.161 40.6949 122.224 40.6949C125.242 40.6949 127.354 41.7648 128.506 42.5604C129.274 43.1091 129.329 43.8498 128.836 44.6454L128.15 45.7702C127.628 46.6207 126.943 46.703 126.092 46.1817C125.187 45.6605 123.897 45.0844 122.443 45.0844C118.52 45.0844 116.902 47.8552 116.902 50.681C116.902 53.589 118.657 56.5794 122.443 56.5794C124.089 56.5794 125.516 55.8386 126.449 55.1802C127.272 54.6041 127.985 54.6315 128.561 55.4546L129.329 56.5245C129.851 57.2927 129.823 58.0608 129.082 58.6369C127.848 59.5971 125.543 60.9689 122.224 60.9689C115.914 60.9689 111.936 56.6068 111.936 50.7907ZM132.243 58.9113L137.922 42.2586C138.197 41.4082 138.745 41.0241 139.623 41.0241H142.092C142.97 41.0241 143.519 41.4082 143.793 42.2586L149.472 58.9113C149.829 59.9538 149.335 60.6396 148.238 60.6396H146.427C145.549 60.6396 145 60.2281 144.726 59.3777L143.903 56.5245H137.785L136.962 59.3777C136.715 60.2281 136.166 60.6396 135.289 60.6396H133.478C132.381 60.6396 131.887 59.9538 132.243 58.9113ZM138.91 52.6837H142.778L141.681 48.8703C141.324 47.6358 140.885 45.4959 140.885 45.4959H140.83C140.83 45.4959 140.391 47.6358 140.035 48.8703L138.91 52.6837ZM152.013 50.9553C152.013 44.9746 156.32 40.6949 162.328 40.6949C165.455 40.6949 167.897 41.8471 168.693 42.4232C169.516 43.0268 169.598 43.6578 169.077 44.5083L168.363 45.6331C167.842 46.4561 167.184 46.511 166.278 46.0446C165.373 45.5782 164.331 45.0844 162.63 45.0844C158.707 45.0844 156.978 47.7181 156.978 50.681C156.978 54.3023 159.557 56.5794 162.547 56.5794C165.346 56.5794 166.58 54.9882 166.58 54.9882V53.6439H165.318C164.331 53.6439 163.809 53.1226 163.809 52.135V51.0651C163.809 50.0774 164.331 49.5562 165.318 49.5562H169.324C170.311 49.5562 170.833 50.0774 170.833 51.0651V59.1308C170.833 60.1184 170.311 60.6396 169.324 60.6396H168.418C167.431 60.6396 166.909 60.1184 166.909 59.46V59.4051C166.909 59.2405 166.937 59.1308 166.937 59.1308H166.882C166.882 59.1308 165.154 60.9689 161.67 60.9689C156.622 60.9689 152.013 57.1281 152.013 50.9553ZM183.09 59.1308V58.5272C183.09 51.2845 191.567 49.9951 191.567 47.1694C191.567 45.7977 190.47 45.2215 189.455 45.2215C188.577 45.2215 187.836 45.6879 187.37 46.1817C186.684 46.8402 185.971 47.1145 185.23 46.511L184.16 45.6605C183.392 45.0569 183.2 44.3711 183.776 43.6304C184.736 42.3684 186.629 40.6949 189.894 40.6949C193.103 40.6949 196.588 42.533 196.588 46.703C196.588 52.8209 188.659 54.0005 188.412 56.5245H195.381C196.368 56.5245 196.889 57.0457 196.889 58.0334V59.1308C196.889 60.1184 196.368 60.6396 195.381 60.6396H184.709C183.776 60.6396 183.09 60.1184 183.09 59.1308ZM200.87 59.1308V57.6493C200.87 56.6617 201.391 56.1404 202.378 56.1404H203.86C204.848 56.1404 205.369 56.6617 205.369 57.6493V59.1308C205.369 60.1184 204.848 60.6396 203.86 60.6396H202.378C201.391 60.6396 200.87 60.1184 200.87 59.1308ZM209.208 59.1308V58.5272C209.208 51.2845 217.686 49.9951 217.686 47.1694C217.686 45.7977 216.588 45.2215 215.573 45.2215C214.695 45.2215 213.954 45.6879 213.488 46.1817C212.802 46.8402 212.089 47.1145 211.348 46.511L210.278 45.6605C209.51 45.0569 209.318 44.3711 209.894 43.6304C210.854 42.3684 212.747 40.6949 216.012 40.6949C219.222 40.6949 222.706 42.533 222.706 46.703C222.706 52.8209 214.777 54.0005 214.531 56.5245H221.499C222.487 56.5245 223.008 57.0457 223.008 58.0334V59.1308C223.008 60.1184 222.487 60.6396 221.499 60.6396H210.827C209.894 60.6396 209.208 60.1184 209.208 59.1308ZM234.642 58.9113L240.321 42.2586C240.595 41.4082 241.144 41.0241 242.022 41.0241H244.491C245.369 41.0241 245.918 41.4082 246.192 42.2586L251.871 58.9113C252.227 59.9538 251.734 60.6396 250.636 60.6396H248.826C247.948 60.6396 247.399 60.2281 247.125 59.3777L246.302 56.5245H240.184L239.361 59.3777C239.114 60.2281 238.565 60.6396 237.687 60.6396H235.877C234.779 60.6396 234.285 59.9538 234.642 58.9113ZM241.309 52.6837H245.177L244.079 48.8703C243.723 47.6358 243.284 45.4959 243.284 45.4959H243.229C243.229 45.4959 242.79 47.6358 242.433 48.8703L241.309 52.6837ZM254.238 58.9113L259.917 42.2586C260.192 41.4082 260.74 41.0241 261.618 41.0241H264.087C264.965 41.0241 265.514 41.4082 265.788 42.2586L271.467 58.9113C271.824 59.9538 271.33 60.6396 270.233 60.6396H268.422C267.544 60.6396 266.995 60.2281 266.721 59.3777L265.898 56.5245H259.78L258.957 59.3777C258.71 60.2281 258.161 60.6396 257.284 60.6396H255.473C254.376 60.6396 253.882 59.9538 254.238 58.9113ZM260.905 52.6837H264.773L263.676 48.8703C263.319 47.6358 262.88 45.4959 262.88 45.4959H262.825C262.825 45.4959 262.386 47.6358 262.03 48.8703L260.905 52.6837Z" fill="white"/>
<rect x="1" y="1" width="50.16" height="50.16" rx="25.08" fill="#58D06C" stroke="#30C549" stroke-width="2" stroke-linecap="round" stroke-linejoin="round"/>
<path fill-rule="evenodd" clip-rule="evenodd" d="M38.6727 16.4198C39.4828 17.193 39.4828 18.4467 38.6727 19.2199L22.0784 35.0599C21.2683 35.8332 19.955 35.8332 19.1449 35.0599L10.8478 27.1399C10.0377 26.3667 10.0377 25.113 10.8478 24.3398C11.6578 23.5665 12.9712 23.5665 13.7813 24.3398L20.6117 30.8597L35.7392 16.4198C36.5493 15.6465 37.8626 15.6465 38.6727 16.4198Z" fill="white"/>
</svg>
